<svg xmlns="http://www.w3.org/2000/svg" xmlns:xlink="http://www.w3.org/1999/xlink" width="1880" zoomAndPan="magnify" viewBox="0 0 1410 449.999984" height="600" preserveAspectRatio="xMidYMid meet" version="1.0"><defs><g/><clipPath id="9428c19236"><path d="M 199 371 L 366.707031 371 L 366.707031 450 L 199 450 Z M 199 371 " clip-rule="nonzero"/></clipPath><clipPath id="dc5cef0f1a"><path d="M 61 259.113281 L 229 259.113281 L 229 338 L 61 338 Z M 61 259.113281 " clip-rule="nonzero"/></clipPath><clipPath id="6270c8025d"><path d="M 92 4.191406 L 266 4.191406 L 266 240.441406 L 92 240.441406 Z M 92 4.191406 " clip-rule="nonzero"/></clipPath><clipPath id="41603cf5e0"><path d="M 68 232 L 77 232 L 77 240.441406 L 68 240.441406 Z M 68 232 " clip-rule="nonzero"/></clipPath><clipPath id="18fd50ede8"><path d="M 60.707031 224 L 69 224 L 69 233 L 60.707031 233 Z M 60.707031 224 " clip-rule="nonzero"/></clipPath><clipPath id="507eb9cead"><path d="M 285 4.191406 L 294 4.191406 L 294 13 L 285 13 Z M 285 4.191406 " clip-rule="nonzero"/></clipPath><clipPath id="a5df289b2f"><path d="M 293 12 L 301.457031 12 L 301.457031 20 L 293 20 Z M 293 12 " clip-rule="nonzero"/></clipPath></defs><g clip-path="url(#9428c19236)"><path fill="#940505" d="M 366.398438 429.503906 L 345.644531 450.304688 L 199.066406 450.304688 L 277.5625 371.636719 L 366.398438 371.636719 Z M 366.398438 429.503906 " fill-opacity="1" fill-rule="nonzero"/></g><g clip-path="url(#dc5cef0f1a)"><path fill="#181818" d="M 61.011719 259.113281 L 149.847656 259.113281 L 228.34375 337.777344 L 81.765625 337.777344 L 61.011719 316.980469 Z M 61.011719 259.113281 " fill-opacity="1" fill-rule="nonzero"/></g><path fill="#181818" d="M 61.011719 392.433594 L 81.765625 371.636719 L 228.34375 371.636719 L 149.847656 450.304688 L 61.011719 450.304688 Z M 61.011719 392.433594 " fill-opacity="1" fill-rule="nonzero"/><g fill="#181818" fill-opacity="1"><g transform="translate(218.547523, 337.23655)"><g><path d="M 56.953125 2.140625 C 47.992188 2.140625 39.6875 -0.273438 32.03125 -5.109375 C 24.382812 -9.953125 18.226562 -17.328125 13.5625 -27.234375 C 8.90625 -37.140625 6.578125 -49.300781 6.578125 -63.71875 C 6.578125 -76.820312 8.890625 -88.078125 13.515625 -97.484375 C 18.148438 -106.890625 24.425781 -114.023438 32.34375 -118.890625 C 40.257812 -123.753906 49.113281 -126.1875 58.90625 -126.1875 C 64.894531 -126.1875 69.96875 -125.601562 74.125 -124.4375 C 78.28125 -123.28125 81.539062 -121.945312 83.90625 -120.4375 C 86.28125 -118.925781 88.566406 -117.160156 90.765625 -115.140625 L 80.796875 -96.453125 C 78.722656 -98.710938 76.882812 -100.445312 75.28125 -101.65625 C 73.675781 -102.875 71.644531 -103.851562 69.1875 -104.59375 C 66.726562 -105.34375 63.597656 -105.71875 59.796875 -105.71875 C 53.867188 -105.71875 48.765625 -103.976562 44.484375 -100.5 C 40.210938 -97.03125 36.953125 -92.222656 34.703125 -86.078125 C 32.453125 -79.941406 31.328125 -72.898438 31.328125 -64.953125 C 31.328125 -54.992188 32.5 -46.484375 34.84375 -39.421875 C 37.1875 -32.359375 40.359375 -27.046875 44.359375 -23.484375 C 48.359375 -19.929688 52.851562 -18.15625 57.84375 -18.15625 C 63.125 -18.15625 67.796875 -18.894531 71.859375 -20.375 C 75.921875 -21.863281 79.019531 -23.734375 81.15625 -25.984375 L 90.9375 -8.359375 C 87.320312 -5.398438 82.945312 -2.910156 77.8125 -0.890625 C 72.6875 1.128906 65.734375 2.140625 56.953125 2.140625 Z M 56.953125 2.140625 "/></g></g></g><g fill="#181818" fill-opacity="1"><g transform="translate(312.339183, 337.23655)"><g><path d="M 12.28125 -88.625 L 32.390625 -88.625 L 33.453125 -72.96875 C 35.359375 -77.53125 38.351562 -81.457031 42.4375 -84.75 C 46.53125 -88.050781 52.316406 -89.703125 59.796875 -89.703125 C 62.765625 -89.703125 65.492188 -89.222656 67.984375 -88.265625 L 63 -64.953125 C 61.988281 -65.960938 60.785156 -66.691406 59.390625 -67.140625 C 58.003906 -67.585938 56.300781 -67.8125 54.28125 -67.8125 C 50.125 -67.8125 46.546875 -66.9375 43.546875 -65.1875 C 40.554688 -63.4375 38.304688 -61.398438 36.796875 -59.078125 C 35.285156 -56.765625 34.53125 -54.867188 34.53125 -53.390625 L 34.53125 0 L 12.28125 0 Z M 12.28125 -88.625 "/></g></g></g><g fill="#181818" fill-opacity="1"><g transform="translate(380.324785, 337.23655)"><g><path d="M 49.125 2.3125 C 39.570312 2.3125 31.679688 0.28125 25.453125 -3.78125 C 19.222656 -7.84375 14.664062 -13.285156 11.78125 -20.109375 C 8.90625 -26.929688 7.46875 -34.644531 7.46875 -43.25 C 7.46875 -52.03125 9.082031 -60.023438 12.3125 -67.234375 C 15.550781 -74.441406 20.285156 -80.164062 26.515625 -84.40625 C 32.742188 -88.644531 40.160156 -90.765625 48.765625 -90.765625 C 61.578125 -90.765625 70.738281 -87.070312 76.25 -79.6875 C 81.769531 -72.300781 84.53125 -61.28125 84.53125 -46.625 C 84.53125 -43.78125 84.410156 -40.578125 84.171875 -37.015625 L 30.78125 -37.015625 C 31.144531 -29.835938 33.148438 -24.304688 36.796875 -20.421875 C 40.441406 -16.535156 45.796875 -14.59375 52.859375 -14.59375 C 56.535156 -14.59375 60.476562 -15.40625 64.6875 -17.03125 C 68.90625 -18.664062 72.019531 -20.640625 74.03125 -22.953125 L 81.15625 -6.046875 C 72.789062 -0.472656 62.113281 2.3125 49.125 2.3125 Z M 61.9375 -50.90625 C 61.9375 -59.625 60.851562 -65.628906 58.6875 -68.921875 C 56.519531 -72.210938 53.390625 -73.859375 49.296875 -73.859375 C 43.546875 -73.859375 39.082031 -71.722656 35.90625 -67.453125 C 32.726562 -63.179688 30.960938 -57.664062 30.609375 -50.90625 Z M 61.9375 -50.90625 "/></g></g></g><g fill="#181818" fill-opacity="1"><g transform="translate(472.692675, 337.23655)"><g><path d="M 30.96875 2.484375 C 25.6875 2.484375 21.234375 1.300781 17.609375 -1.0625 C 13.992188 -3.4375 11.28125 -6.640625 9.46875 -10.671875 C 7.664062 -14.710938 6.765625 -19.222656 6.765625 -24.203125 C 6.765625 -28.535156 8.203125 -32.851562 11.078125 -37.15625 C 13.953125 -41.457031 19.066406 -45.117188 26.421875 -48.140625 C 33.785156 -51.160156 43.722656 -52.671875 56.234375 -52.671875 L 56.234375 -56.765625 C 56.234375 -61.628906 55.0625 -65.394531 52.71875 -68.0625 C 50.375 -70.738281 46.269531 -72.078125 40.40625 -72.078125 C 35.769531 -72.078125 31.242188 -71.289062 26.828125 -69.71875 C 22.410156 -68.144531 19.160156 -66.203125 17.078125 -63.890625 L 9.96875 -80.96875 C 14 -83.695312 19.007812 -86.007812 25 -87.90625 C 30.988281 -89.8125 37.367188 -90.765625 44.140625 -90.765625 C 52.617188 -90.765625 59.332031 -89.457031 64.28125 -86.84375 C 69.238281 -84.238281 72.722656 -80.5625 74.734375 -75.8125 C 76.753906 -71.070312 77.765625 -65.203125 77.765625 -58.203125 L 77.765625 0 L 58.734375 0 L 57.125 -12.640625 C 53.976562 -7.535156 50.253906 -3.738281 45.953125 -1.25 C 41.660156 1.238281 36.664062 2.484375 30.96875 2.484375 Z M 40.40625 -14.59375 C 43.132812 -14.59375 46.007812 -15.6875 49.03125 -17.875 C 52.050781 -20.070312 54.453125 -22.832031 56.234375 -26.15625 L 56.234375 -38.796875 C 55.410156 -38.910156 53.988281 -38.96875 51.96875 -38.96875 C 45.976562 -38.96875 40.625 -37.972656 35.90625 -35.984375 C 31.1875 -34.003906 28.828125 -30.789062 28.828125 -26.34375 C 28.828125 -22.125 29.757812 -19.109375 31.625 -17.296875 C 33.5 -15.492188 36.425781 -14.59375 40.40625 -14.59375 Z M 40.40625 -14.59375 "/></g></g></g><g fill="#181818" fill-opacity="1"><g transform="translate(561.145152, 337.23655)"><g><path d="M 42.359375 2.671875 C 35.773438 2.671875 30.613281 1.546875 26.875 -0.703125 C 23.132812 -2.960938 20.507812 -6.359375 19 -10.890625 C 17.488281 -15.429688 16.734375 -21.410156 16.734375 -28.828125 L 16.734375 -69.9375 L 5.15625 -69.9375 L 5.15625 -88.625 L 17.625 -88.625 L 18.859375 -107.3125 L 38.265625 -115.6875 L 38.265625 -88.625 L 60.15625 -88.625 L 60.15625 -69.9375 L 38.265625 -69.9375 L 38.265625 -29.359375 C 38.265625 -24.378906 38.945312 -20.847656 40.3125 -18.765625 C 41.675781 -16.691406 43.722656 -15.65625 46.453125 -15.65625 C 48.878906 -15.65625 51.53125 -16.289062 54.40625 -17.5625 C 57.289062 -18.84375 59.679688 -20.285156 61.578125 -21.890625 L 65.84375 -3.921875 C 63.238281 -2.078125 59.488281 -0.519531 54.59375 0.75 C 49.695312 2.03125 45.617188 2.671875 42.359375 2.671875 Z M 42.359375 2.671875 "/></g></g></g><g fill="#181818" fill-opacity="1"><g transform="translate(630.376592, 337.23655)"><g><path d="M 12.453125 -126.71875 L 37.375 -126.71875 L 37.375 -103.046875 L 12.453125 -103.046875 Z M 13.34375 -88.625 L 36.484375 -88.625 L 36.484375 0 L 13.34375 0 Z M 13.34375 -88.625 "/></g></g></g><g fill="#181818" fill-opacity="1"><g transform="translate(680.208971, 337.23655)"><g><path d="M -1.0625 -88.625 L 23.84375 -88.625 L 39.15625 -44.3125 L 43.0625 -29.71875 L 46.625 -44.3125 L 61.40625 -88.625 L 84.890625 -88.625 L 50.71875 0 L 34.875 0 Z M -1.0625 -88.625 "/></g></g></g><g fill="#181818" fill-opacity="1"><g transform="translate(764.034144, 337.23655)"><g><path d="M 49.125 2.3125 C 39.570312 2.3125 31.679688 0.28125 25.453125 -3.78125 C 19.222656 -7.84375 14.664062 -13.285156 11.78125 -20.109375 C 8.90625 -26.929688 7.46875 -34.644531 7.46875 -43.25 C 7.46875 -52.03125 9.082031 -60.023438 12.3125 -67.234375 C 15.550781 -74.441406 20.285156 -80.164062 26.515625 -84.40625 C 32.742188 -88.644531 40.160156 -90.765625 48.765625 -90.765625 C 61.578125 -90.765625 70.738281 -87.070312 76.25 -79.6875 C 81.769531 -72.300781 84.53125 -61.28125 84.53125 -46.625 C 84.53125 -43.78125 84.410156 -40.578125 84.171875 -37.015625 L 30.78125 -37.015625 C 31.144531 -29.835938 33.148438 -24.304688 36.796875 -20.421875 C 40.441406 -16.535156 45.796875 -14.59375 52.859375 -14.59375 C 56.535156 -14.59375 60.476562 -15.40625 64.6875 -17.03125 C 68.90625 -18.664062 72.019531 -20.640625 74.03125 -22.953125 L 81.15625 -6.046875 C 72.789062 -0.472656 62.113281 2.3125 49.125 2.3125 Z M 61.9375 -50.90625 C 61.9375 -59.625 60.851562 -65.628906 58.6875 -68.921875 C 56.519531 -72.210938 53.390625 -73.859375 49.296875 -73.859375 C 43.546875 -73.859375 39.082031 -71.722656 35.90625 -67.453125 C 32.726562 -63.179688 30.960938 -57.664062 30.609375 -50.90625 Z M 61.9375 -50.90625 "/></g></g></g><g fill="#f5383c" fill-opacity="1"><g transform="translate(856.399036, 337.23655)"><g><path d="M 43.953125 2.671875 C 36.953125 2.671875 30.335938 1.8125 24.109375 0.09375 C 17.878906 -1.625 12.332031 -4.207031 7.46875 -7.65625 L 14.953125 -27.9375 C 18.273438 -24.738281 22.351562 -22.21875 27.1875 -20.375 C 32.019531 -18.539062 36.835938 -17.625 41.640625 -17.625 C 49.359375 -17.625 55.171875 -19.445312 59.078125 -23.09375 C 62.992188 -26.738281 64.953125 -31.554688 64.953125 -37.546875 C 64.953125 -44.191406 62.679688 -48.789062 58.140625 -51.34375 C 53.609375 -53.894531 47.578125 -55.171875 40.046875 -55.171875 L 30.609375 -55.171875 L 30.609375 -72.796875 L 40.21875 -72.796875 C 47.28125 -72.796875 52.632812 -74.515625 56.28125 -77.953125 C 59.925781 -81.390625 61.75 -85.957031 61.75 -91.65625 C 61.75 -97.289062 60.085938 -101.21875 56.765625 -103.4375 C 53.441406 -105.664062 48.398438 -106.78125 41.640625 -106.78125 C 39.210938 -106.78125 36.351562 -106.347656 33.0625 -105.484375 C 29.769531 -104.628906 26.550781 -103.382812 23.40625 -101.75 C 20.257812 -100.125 17.675781 -98.179688 15.65625 -95.921875 L 6.765625 -114.796875 C 10.796875 -118.347656 16.238281 -121.28125 23.09375 -123.59375 C 29.945312 -125.90625 37.734375 -127.0625 46.453125 -127.0625 C 54.640625 -127.0625 61.753906 -125.816406 67.796875 -123.328125 C 73.847656 -120.835938 78.503906 -117.203125 81.765625 -112.421875 C 85.035156 -107.648438 86.671875 -101.914062 86.671875 -95.21875 C 86.671875 -90.644531 85.851562 -86.160156 84.21875 -81.765625 C 82.59375 -77.378906 80.207031 -73.597656 77.0625 -70.421875 C 73.914062 -67.253906 70.238281 -65.132812 66.03125 -64.0625 C 70.894531 -64.0625 75.148438 -62.695312 78.796875 -59.96875 C 82.441406 -57.238281 85.226562 -53.648438 87.15625 -49.203125 C 89.082031 -44.753906 90.046875 -39.976562 90.046875 -34.875 C 90.046875 -27.28125 88 -20.632812 83.90625 -14.9375 C 79.8125 -9.25 74.265625 -4.890625 67.265625 -1.859375 C 60.265625 1.160156 52.492188 2.671875 43.953125 2.671875 Z M 43.953125 2.671875 "/></g></g></g><g fill="#f5383c" fill-opacity="1"><g transform="translate(953.394206, 337.23655)"><g><path d="M 75.375 -65.671875 C 82.3125 -64.003906 87.5 -60.601562 90.9375 -55.46875 C 94.382812 -50.34375 96.109375 -43.773438 96.109375 -35.765625 C 96.109375 -24.378906 92.234375 -15.570312 84.484375 -9.34375 C 76.742188 -3.113281 64.773438 0 48.578125 0 L 14.953125 0 L 14.953125 -124.046875 L 48.046875 -124.046875 C 75.929688 -124.046875 89.875 -113.007812 89.875 -90.9375 C 89.875 -85.78125 88.65625 -80.859375 86.21875 -76.171875 C 83.789062 -71.484375 80.175781 -67.984375 75.375 -65.671875 Z M 67.8125 -90.234375 C 67.8125 -96.160156 65.96875 -100.335938 62.28125 -102.765625 C 58.601562 -105.203125 53.859375 -106.421875 48.046875 -106.421875 L 37.375 -106.421875 L 37.375 -72.078125 L 51.78125 -72.078125 C 55.582031 -72.078125 58.671875 -72.992188 61.046875 -74.828125 C 63.421875 -76.671875 65.140625 -78.972656 66.203125 -81.734375 C 67.273438 -84.492188 67.8125 -87.328125 67.8125 -90.234375 Z M 51.078125 -17.96875 C 57.484375 -17.96875 62.671875 -19.316406 66.640625 -22.015625 C 70.617188 -24.722656 72.609375 -29.722656 72.609375 -37.015625 C 72.609375 -44.316406 70.546875 -49.226562 66.421875 -51.75 C 62.304688 -54.269531 56.835938 -55.53125 50.015625 -55.53125 L 37.375 -55.53125 L 37.375 -17.96875 Z M 51.078125 -17.96875 "/></g></g></g><g fill="#233dff" fill-opacity="1"><g transform="translate(1054.481048, 337.23655)"><g><path d="M 20.46875 -32.75 L 27.046875 -43.609375 L 20.28125 -55 L 2.140625 -88.625 L 27.40625 -88.625 L 38.078125 -66.203125 L 42.53125 -55.875 L 47.15625 -66.203125 L 57.65625 -88.625 L 81.328125 -88.625 L 63.53125 -55.703125 L 57.125 -44.5 L 63.53125 -33.8125 L 82.75 0 L 57.65625 0 L 44.84375 -23.84375 L 40.9375 -31.859375 L 37.734375 -23.84375 L 26.703125 0 L 2.140625 0 Z M 20.46875 -32.75 "/></g></g></g><g fill="#ff914d" fill-opacity="1"><g transform="translate(573.045784, 419.092085)"><g><path d="M 4.9375 0 C 4.6875 0 4.472656 -0.0859375 4.296875 -0.265625 C 4.117188 -0.441406 4.03125 -0.65625 4.03125 -0.90625 L 4.03125 -52.3125 C 4.03125 -52.5625 4.117188 -52.773438 4.296875 -52.953125 C 4.472656 -53.128906 4.6875 -53.21875 4.9375 -53.21875 L 13.84375 -53.21875 C 14.09375 -53.21875 14.304688 -53.128906 14.484375 -52.953125 C 14.660156 -52.773438 14.75 -52.5625 14.75 -52.3125 L 14.75 -0.90625 C 14.75 -0.65625 14.660156 -0.441406 14.484375 -0.265625 C 14.304688 -0.0859375 14.09375 0 13.84375 0 Z M 4.9375 0 "/></g></g></g><g fill="#ff914d" fill-opacity="1"><g transform="translate(593.268718, 419.092085)"><g><path d="M 37.109375 -53.21875 C 37.359375 -53.21875 37.570312 -53.128906 37.75 -52.953125 C 37.925781 -52.773438 38.015625 -52.5625 38.015625 -52.3125 L 38.015625 -44.859375 C 38.015625 -44.609375 37.925781 -44.394531 37.75 -44.21875 C 37.570312 -44.039062 37.359375 -43.953125 37.109375 -43.953125 L 25.546875 -43.953125 C 25.296875 -43.953125 25.171875 -43.820312 25.171875 -43.5625 L 25.171875 -0.90625 C 25.171875 -0.65625 25.082031 -0.441406 24.90625 -0.265625 C 24.726562 -0.0859375 24.507812 0 24.25 0 L 15.359375 0 C 15.109375 0 14.894531 -0.0859375 14.71875 -0.265625 C 14.539062 -0.441406 14.453125 -0.65625 14.453125 -0.90625 L 14.453125 -43.5625 C 14.453125 -43.820312 14.320312 -43.953125 14.0625 -43.953125 L 2.890625 -43.953125 C 2.640625 -43.953125 2.425781 -44.039062 2.25 -44.21875 C 2.070312 -44.394531 1.984375 -44.609375 1.984375 -44.859375 L 1.984375 -52.3125 C 1.984375 -52.5625 2.070312 -52.773438 2.25 -52.953125 C 2.425781 -53.128906 2.640625 -53.21875 2.890625 -53.21875 Z M 37.109375 -53.21875 "/></g></g></g><g fill="#ff914d" fill-opacity="1"><g transform="translate(634.778286, 419.092085)"><g/></g></g><g fill="#ff914d" fill-opacity="1"><g transform="translate(651.50413, 419.092085)"><g><path d="M 20 0.609375 C 16.5 0.609375 13.429688 -0.0078125 10.796875 -1.25 C 8.160156 -2.5 6.117188 -4.25 4.671875 -6.5 C 3.234375 -8.757812 2.515625 -11.359375 2.515625 -14.296875 L 2.515625 -16.265625 C 2.515625 -16.523438 2.601562 -16.742188 2.78125 -16.921875 C 2.957031 -17.097656 3.171875 -17.1875 3.421875 -17.1875 L 12.171875 -17.1875 C 12.421875 -17.1875 12.632812 -17.097656 12.8125 -16.921875 C 12.988281 -16.742188 13.078125 -16.523438 13.078125 -16.265625 L 13.078125 -14.828125 C 13.078125 -13.054688 13.734375 -11.570312 15.046875 -10.375 C 16.367188 -9.1875 18.144531 -8.59375 20.375 -8.59375 C 22.351562 -8.59375 23.859375 -9.097656 24.890625 -10.109375 C 25.929688 -11.117188 26.453125 -12.410156 26.453125 -13.984375 C 26.453125 -15.148438 26.125 -16.148438 25.46875 -16.984375 C 24.8125 -17.828125 23.882812 -18.613281 22.6875 -19.34375 C 21.5 -20.082031 19.664062 -21.085938 17.1875 -22.359375 C 14.144531 -23.878906 11.660156 -25.296875 9.734375 -26.609375 C 7.804688 -27.929688 6.15625 -29.628906 4.78125 -31.703125 C 3.414062 -33.785156 2.734375 -36.296875 2.734375 -39.234375 C 2.734375 -42.171875 3.429688 -44.738281 4.828125 -46.9375 C 6.222656 -49.144531 8.1875 -50.84375 10.71875 -52.03125 C 13.25 -53.226562 16.140625 -53.828125 19.390625 -53.828125 C 22.785156 -53.828125 25.800781 -53.179688 28.4375 -51.890625 C 31.070312 -50.597656 33.125 -48.785156 34.59375 -46.453125 C 36.0625 -44.117188 36.796875 -41.429688 36.796875 -38.390625 L 36.796875 -36.875 C 36.796875 -36.625 36.707031 -36.410156 36.53125 -36.234375 C 36.351562 -36.054688 36.140625 -35.96875 35.890625 -35.96875 L 27.140625 -35.96875 C 26.890625 -35.96875 26.675781 -36.054688 26.5 -36.234375 C 26.320312 -36.410156 26.234375 -36.625 26.234375 -36.875 L 26.234375 -38.25 C 26.234375 -40.070312 25.597656 -41.585938 24.328125 -42.796875 C 23.054688 -44.015625 21.332031 -44.625 19.15625 -44.625 C 17.332031 -44.625 15.898438 -44.15625 14.859375 -43.21875 C 13.828125 -42.28125 13.3125 -40.976562 13.3125 -39.3125 C 13.3125 -38.144531 13.613281 -37.128906 14.21875 -36.265625 C 14.820312 -35.398438 15.757812 -34.578125 17.03125 -33.796875 C 18.300781 -33.015625 20.226562 -31.988281 22.8125 -30.71875 L 24.40625 -29.796875 C 27.34375 -28.179688 29.632812 -26.773438 31.28125 -25.578125 C 32.9375 -24.390625 34.320312 -22.882812 35.4375 -21.0625 C 36.550781 -19.238281 37.109375 -17.035156 37.109375 -14.453125 C 37.109375 -9.835938 35.546875 -6.171875 32.421875 -3.453125 C 29.304688 -0.742188 25.164062 0.609375 20 0.609375 Z M 20 0.609375 "/></g></g></g><g fill="#ff914d" fill-opacity="1"><g transform="translate(692.557585, 419.092085)"><g><path d="M 36.421875 -44.9375 C 36.421875 -44.675781 36.332031 -44.457031 36.15625 -44.28125 C 35.976562 -44.101562 35.757812 -44.015625 35.5 -44.015625 L 15.125 -44.015625 C 14.875 -44.015625 14.75 -43.890625 14.75 -43.640625 L 14.75 -31.78125 C 14.75 -31.53125 14.875 -31.40625 15.125 -31.40625 L 27.828125 -31.40625 C 28.078125 -31.40625 28.289062 -31.316406 28.46875 -31.140625 C 28.644531 -30.960938 28.734375 -30.742188 28.734375 -30.484375 L 28.734375 -23.109375 C 28.734375 -22.859375 28.644531 -22.644531 28.46875 -22.46875 C 28.289062 -22.289062 28.078125 -22.203125 27.828125 -22.203125 L 15.125 -22.203125 C 14.875 -22.203125 14.75 -22.078125 14.75 -21.828125 L 14.75 -9.578125 C 14.75 -9.328125 14.875 -9.203125 15.125 -9.203125 L 35.5 -9.203125 C 35.757812 -9.203125 35.976562 -9.113281 36.15625 -8.9375 C 36.332031 -8.757812 36.421875 -8.539062 36.421875 -8.28125 L 36.421875 -0.90625 C 36.421875 -0.65625 36.332031 -0.441406 36.15625 -0.265625 C 35.976562 -0.0859375 35.757812 0 35.5 0 L 4.9375 0 C 4.6875 0 4.472656 -0.0859375 4.296875 -0.265625 C 4.117188 -0.441406 4.03125 -0.65625 4.03125 -0.90625 L 4.03125 -52.3125 C 4.03125 -52.5625 4.117188 -52.773438 4.296875 -52.953125 C 4.472656 -53.128906 4.6875 -53.21875 4.9375 -53.21875 L 35.5 -53.21875 C 35.757812 -53.21875 35.976562 -53.128906 36.15625 -52.953125 C 36.332031 -52.773438 36.421875 -52.5625 36.421875 -52.3125 Z M 36.421875 -44.9375 "/></g></g></g><g fill="#ff914d" fill-opacity="1"><g transform="translate(732.926802, 419.092085)"><g><path d="M 29.046875 0 C 28.484375 0 28.128906 -0.253906 27.984375 -0.765625 L 20.296875 -21.75 C 20.191406 -21.945312 20.066406 -22.046875 19.921875 -22.046875 L 15.125 -22.046875 C 14.875 -22.046875 14.75 -21.921875 14.75 -21.671875 L 14.75 -0.90625 C 14.75 -0.65625 14.660156 -0.441406 14.484375 -0.265625 C 14.304688 -0.0859375 14.09375 0 13.84375 0 L 4.9375 0 C 4.6875 0 4.472656 -0.0859375 4.296875 -0.265625 C 4.117188 -0.441406 4.03125 -0.65625 4.03125 -0.90625 L 4.03125 -52.3125 C 4.03125 -52.5625 4.117188 -52.773438 4.296875 -52.953125 C 4.472656 -53.128906 4.6875 -53.21875 4.9375 -53.21875 L 23.5 -53.21875 C 26.488281 -53.21875 29.144531 -52.546875 31.46875 -51.203125 C 33.800781 -49.859375 35.601562 -47.96875 36.875 -45.53125 C 38.144531 -43.101562 38.78125 -40.316406 38.78125 -37.171875 C 38.78125 -33.929688 38.066406 -31.117188 36.640625 -28.734375 C 35.222656 -26.359375 33.222656 -24.585938 30.640625 -23.421875 C 30.390625 -23.316406 30.3125 -23.140625 30.40625 -22.890625 L 39.078125 -1.0625 C 39.128906 -0.957031 39.15625 -0.832031 39.15625 -0.6875 C 39.15625 -0.226562 38.875 0 38.3125 0 Z M 15.125 -44.015625 C 14.875 -44.015625 14.75 -43.890625 14.75 -43.640625 L 14.75 -30.640625 C 14.75 -30.390625 14.875 -30.265625 15.125 -30.265625 L 21.75 -30.265625 C 23.625 -30.265625 25.144531 -30.882812 26.3125 -32.125 C 27.476562 -33.363281 28.0625 -35.023438 28.0625 -37.109375 C 28.0625 -39.234375 27.476562 -40.914062 26.3125 -42.15625 C 25.144531 -43.394531 23.625 -44.015625 21.75 -44.015625 Z M 15.125 -44.015625 "/></g></g></g><g fill="#ff914d" fill-opacity="1"><g transform="translate(775.728768, 419.092085)"><g><path d="M 16.1875 0 C 15.632812 0 15.28125 -0.253906 15.125 -0.765625 L 1.90625 -52.234375 L 1.90625 -52.53125 C 1.90625 -52.988281 2.179688 -53.21875 2.734375 -53.21875 L 12.390625 -53.21875 C 12.953125 -53.21875 13.28125 -52.941406 13.375 -52.390625 L 21.0625 -17.03125 C 21.113281 -16.832031 21.1875 -16.734375 21.28125 -16.734375 C 21.382812 -16.734375 21.460938 -16.832031 21.515625 -17.03125 L 29.125 -52.390625 C 29.21875 -52.941406 29.546875 -53.21875 30.109375 -53.21875 L 39.453125 -53.21875 C 40.171875 -53.21875 40.453125 -52.890625 40.296875 -52.234375 L 26.921875 -0.765625 C 26.765625 -0.253906 26.40625 0 25.84375 0 Z M 16.1875 0 "/></g></g></g><g fill="#ff914d" fill-opacity="1"><g transform="translate(819.44302, 419.092085)"><g><path d="M 4.9375 0 C 4.6875 0 4.472656 -0.0859375 4.296875 -0.265625 C 4.117188 -0.441406 4.03125 -0.65625 4.03125 -0.90625 L 4.03125 -52.3125 C 4.03125 -52.5625 4.117188 -52.773438 4.296875 -52.953125 C 4.472656 -53.128906 4.6875 -53.21875 4.9375 -53.21875 L 13.84375 -53.21875 C 14.09375 -53.21875 14.304688 -53.128906 14.484375 -52.953125 C 14.660156 -52.773438 14.75 -52.5625 14.75 -52.3125 L 14.75 -0.90625 C 14.75 -0.65625 14.660156 -0.441406 14.484375 -0.265625 C 14.304688 -0.0859375 14.09375 0 13.84375 0 Z M 4.9375 0 "/></g></g></g><g fill="#ff914d" fill-opacity="1"><g transform="translate(839.665957, 419.092085)"><g><path d="M 20.53125 0.609375 C 17.082031 0.609375 14.039062 -0.0703125 11.40625 -1.4375 C 8.769531 -2.8125 6.726562 -4.765625 5.28125 -7.296875 C 3.84375 -9.828125 3.125 -12.769531 3.125 -16.125 L 3.125 -37.25 C 3.125 -40.550781 3.84375 -43.453125 5.28125 -45.953125 C 6.726562 -48.460938 8.769531 -50.398438 11.40625 -51.765625 C 14.039062 -53.140625 17.082031 -53.828125 20.53125 -53.828125 C 23.976562 -53.828125 27.019531 -53.15625 29.65625 -51.8125 C 32.289062 -50.46875 34.328125 -48.578125 35.765625 -46.140625 C 37.210938 -43.710938 37.9375 -40.878906 37.9375 -37.640625 L 37.9375 -37.25 C 37.9375 -37 37.847656 -36.769531 37.671875 -36.5625 C 37.492188 -36.363281 37.28125 -36.265625 37.03125 -36.265625 L 28.125 -35.890625 C 27.519531 -35.890625 27.21875 -36.164062 27.21875 -36.71875 L 27.21875 -37.71875 C 27.21875 -39.789062 26.609375 -41.457031 25.390625 -42.71875 C 24.171875 -43.988281 22.550781 -44.625 20.53125 -44.625 C 18.5 -44.625 16.875 -43.988281 15.65625 -42.71875 C 14.445312 -41.457031 13.84375 -39.789062 13.84375 -37.71875 L 13.84375 -15.4375 C 13.84375 -13.351562 14.445312 -11.691406 15.65625 -10.453125 C 16.875 -9.210938 18.5 -8.59375 20.53125 -8.59375 C 22.550781 -8.59375 24.171875 -9.210938 25.390625 -10.453125 C 26.609375 -11.691406 27.21875 -13.351562 27.21875 -15.4375 L 27.21875 -16.421875 C 27.21875 -16.984375 27.519531 -17.265625 28.125 -17.265625 L 37.03125 -16.875 C 37.28125 -16.875 37.492188 -16.785156 37.671875 -16.609375 C 37.847656 -16.429688 37.9375 -16.21875 37.9375 -15.96875 L 37.9375 -15.734375 C 37.9375 -12.492188 37.210938 -9.628906 35.765625 -7.140625 C 34.328125 -4.660156 32.289062 -2.75 29.65625 -1.40625 C 27.019531 -0.0625 23.976562 0.609375 20.53125 0.609375 Z M 20.53125 0.609375 "/></g></g></g><g fill="#ff914d" fill-opacity="1"><g transform="translate(881.935792, 419.092085)"><g><path d="M 36.421875 -44.9375 C 36.421875 -44.675781 36.332031 -44.457031 36.15625 -44.28125 C 35.976562 -44.101562 35.757812 -44.015625 35.5 -44.015625 L 15.125 -44.015625 C 14.875 -44.015625 14.75 -43.890625 14.75 -43.640625 L 14.75 -31.78125 C 14.75 -31.53125 14.875 -31.40625 15.125 -31.40625 L 27.828125 -31.40625 C 28.078125 -31.40625 28.289062 -31.316406 28.46875 -31.140625 C 28.644531 -30.960938 28.734375 -30.742188 28.734375 -30.484375 L 28.734375 -23.109375 C 28.734375 -22.859375 28.644531 -22.644531 28.46875 -22.46875 C 28.289062 -22.289062 28.078125 -22.203125 27.828125 -22.203125 L 15.125 -22.203125 C 14.875 -22.203125 14.75 -22.078125 14.75 -21.828125 L 14.75 -9.578125 C 14.75 -9.328125 14.875 -9.203125 15.125 -9.203125 L 35.5 -9.203125 C 35.757812 -9.203125 35.976562 -9.113281 36.15625 -8.9375 C 36.332031 -8.757812 36.421875 -8.539062 36.421875 -8.28125 L 36.421875 -0.90625 C 36.421875 -0.65625 36.332031 -0.441406 36.15625 -0.265625 C 35.976562 -0.0859375 35.757812 0 35.5 0 L 4.9375 0 C 4.6875 0 4.472656 -0.0859375 4.296875 -0.265625 C 4.117188 -0.441406 4.03125 -0.65625 4.03125 -0.90625 L 4.03125 -52.3125 C 4.03125 -52.5625 4.117188 -52.773438 4.296875 -52.953125 C 4.472656 -53.128906 4.6875 -53.21875 4.9375 -53.21875 L 35.5 -53.21875 C 35.757812 -53.21875 35.976562 -53.128906 36.15625 -52.953125 C 36.332031 -52.773438 36.421875 -52.5625 36.421875 -52.3125 Z M 36.421875 -44.9375 "/></g></g></g><g fill="#ff914d" fill-opacity="1"><g transform="translate(922.305009, 419.092085)"><g><path d="M 20 0.609375 C 16.5 0.609375 13.429688 -0.0078125 10.796875 -1.25 C 8.160156 -2.5 6.117188 -4.25 4.671875 -6.5 C 3.234375 -8.757812 2.515625 -11.359375 2.515625 -14.296875 L 2.515625 -16.265625 C 2.515625 -16.523438 2.601562 -16.742188 2.78125 -16.921875 C 2.957031 -17.097656 3.171875 -17.1875 3.421875 -17.1875 L 12.171875 -17.1875 C 12.421875 -17.1875 12.632812 -17.097656 12.8125 -16.921875 C 12.988281 -16.742188 13.078125 -16.523438 13.078125 -16.265625 L 13.078125 -14.828125 C 13.078125 -13.054688 13.734375 -11.570312 15.046875 -10.375 C 16.367188 -9.1875 18.144531 -8.59375 20.375 -8.59375 C 22.351562 -8.59375 23.859375 -9.097656 24.890625 -10.109375 C 25.929688 -11.117188 26.453125 -12.410156 26.453125 -13.984375 C 26.453125 -15.148438 26.125 -16.148438 25.46875 -16.984375 C 24.8125 -17.828125 23.882812 -18.613281 22.6875 -19.34375 C 21.5 -20.082031 19.664062 -21.085938 17.1875 -22.359375 C 14.144531 -23.878906 11.660156 -25.296875 9.734375 -26.609375 C 7.804688 -27.929688 6.15625 -29.628906 4.78125 -31.703125 C 3.414062 -33.785156 2.734375 -36.296875 2.734375 -39.234375 C 2.734375 -42.171875 3.429688 -44.738281 4.828125 -46.9375 C 6.222656 -49.144531 8.1875 -50.84375 10.71875 -52.03125 C 13.25 -53.226562 16.140625 -53.828125 19.390625 -53.828125 C 22.785156 -53.828125 25.800781 -53.179688 28.4375 -51.890625 C 31.070312 -50.597656 33.125 -48.785156 34.59375 -46.453125 C 36.0625 -44.117188 36.796875 -41.429688 36.796875 -38.390625 L 36.796875 -36.875 C 36.796875 -36.625 36.707031 -36.410156 36.53125 -36.234375 C 36.351562 -36.054688 36.140625 -35.96875 35.890625 -35.96875 L 27.140625 -35.96875 C 26.890625 -35.96875 26.675781 -36.054688 26.5 -36.234375 C 26.320312 -36.410156 26.234375 -36.625 26.234375 -36.875 L 26.234375 -38.25 C 26.234375 -40.070312 25.597656 -41.585938 24.328125 -42.796875 C 23.054688 -44.015625 21.332031 -44.625 19.15625 -44.625 C 17.332031 -44.625 15.898438 -44.15625 14.859375 -43.21875 C 13.828125 -42.28125 13.3125 -40.976562 13.3125 -39.3125 C 13.3125 -38.144531 13.613281 -37.128906 14.21875 -36.265625 C 14.820312 -35.398438 15.757812 -34.578125 17.03125 -33.796875 C 18.300781 -33.015625 20.226562 -31.988281 22.8125 -30.71875 L 24.40625 -29.796875 C 27.34375 -28.179688 29.632812 -26.773438 31.28125 -25.578125 C 32.9375 -24.390625 34.320312 -22.882812 35.4375 -21.0625 C 36.550781 -19.238281 37.109375 -17.035156 37.109375 -14.453125 C 37.109375 -9.835938 35.546875 -6.171875 32.421875 -3.453125 C 29.304688 -0.742188 25.164062 0.609375 20 0.609375 Z M 20 0.609375 "/></g></g></g><path fill="#dbe6fd" d="M 261.902344 84.253906 C 261.902344 104.527344 253.710938 132.269531 240.289062 155.996094 C 232.210938 170.28125 214.59375 188.625 214.59375 205.003906 L 179.113281 205.003906 L 179.113281 8.128906 C 224.835938 8.128906 261.902344 41.105469 261.902344 84.253906 Z M 261.902344 84.253906 " fill-opacity="1" fill-rule="nonzero"/><path fill="#17afdc" d="M 179.113281 75.066406 L 214.59375 75.066406 L 214.59375 122.316406 L 179.113281 122.316406 Z M 179.113281 75.066406 " fill-opacity="1" fill-rule="nonzero"/><path fill="#fccc38" d="M 96.324219 84.253906 C 96.324219 104.527344 104.511719 132.269531 117.9375 155.996094 C 126.015625 170.28125 143.632812 188.625 143.632812 205.003906 L 179.113281 205.003906 L 179.113281 8.128906 C 133.390625 8.128906 96.324219 41.105469 96.324219 84.253906 Z M 96.324219 84.253906 " fill-opacity="1" fill-rule="nonzero"/><path fill="#5358a1" d="M 211.613281 220.753906 L 146.613281 220.753906 C 142.257812 220.753906 138.726562 217.230469 138.726562 212.878906 L 138.726562 212.605469 C 138.726562 208.253906 142.257812 205.28125 146.613281 205.28125 L 211.613281 205.28125 C 215.96875 205.28125 219.496094 208.253906 219.496094 212.605469 L 219.496094 212.878906 C 219.496094 217.230469 215.964844 220.753906 211.613281 220.753906 Z M 211.613281 220.753906 " fill-opacity="1" fill-rule="nonzero"/><path fill="#5358a1" d="M 212.621094 236.78125 L 145.601562 236.78125 C 141.246094 236.78125 137.71875 233.257812 137.71875 228.90625 L 137.71875 228.628906 C 137.71875 224.28125 141.246094 220.753906 145.601562 220.753906 L 212.621094 220.753906 C 216.976562 220.753906 220.507812 224.28125 220.507812 228.628906 L 220.507812 228.90625 C 220.507812 233.257812 216.976562 236.78125 212.621094 236.78125 Z M 212.621094 236.78125 " fill-opacity="1" fill-rule="nonzero"/><path fill="#f4393d" d="M 172.390625 44.015625 L 170.660156 52.238281 C 168.078125 52.703125 165.578125 53.390625 163.160156 54.257812 L 157.507812 47.957031 C 153.355469 49.726562 149.496094 52.035156 145.933594 54.714844 L 148.546875 62.660156 C 146.566406 64.34375 144.722656 66.175781 143.042969 68.15625 L 135.089844 65.546875 C 132.402344 69.101562 130.09375 72.957031 128.320312 77.109375 L 134.628906 82.75 C 133.761719 85.167969 133.074219 87.664062 132.605469 90.242188 L 124.375 91.972656 C 124.101562 94.183594 123.921875 96.417969 123.921875 98.691406 C 123.921875 100.96875 124.101562 103.203125 124.371094 105.40625 L 132.601562 107.136719 C 133.066406 109.714844 133.757812 112.210938 134.625 114.628906 L 128.316406 120.269531 C 130.085938 124.421875 132.398438 128.277344 135.082031 131.832031 L 143.035156 129.222656 C 144.71875 131.203125 146.558594 133.039062 148.539062 134.71875 L 145.925781 142.664062 C 149.488281 145.347656 153.347656 147.65625 157.5 149.425781 L 163.148438 143.125 C 165.570312 143.992188 168.070312 144.679688 170.652344 145.144531 L 172.382812 153.367188 C 174.597656 153.636719 176.835938 153.816406 179.113281 153.816406 L 179.113281 43.566406 C 176.835938 43.566406 174.597656 43.75 172.390625 44.015625 Z M 172.390625 44.015625 " fill-opacity="1" fill-rule="nonzero"/><path fill="#f7edd3" d="M 179.113281 130.191406 C 161.695312 130.191406 147.574219 116.089844 147.574219 98.691406 C 147.574219 81.296875 161.695312 67.191406 179.113281 67.191406 " fill-opacity="1" fill-rule="nonzero"/><path fill="#fccc38" d="M 210.652344 39.628906 C 210.652344 40.148438 210.601562 40.660156 210.5 41.167969 C 210.398438 41.675781 210.25 42.167969 210.050781 42.644531 C 209.851562 43.121094 209.609375 43.574219 209.320312 44.007812 C 209.035156 44.4375 208.707031 44.832031 208.339844 45.199219 C 207.976562 45.566406 207.578125 45.890625 207.148438 46.179688 C 206.714844 46.464844 206.261719 46.707031 205.785156 46.90625 C 205.304688 47.105469 204.8125 47.253906 204.304688 47.355469 C 203.796875 47.457031 203.285156 47.503906 202.765625 47.503906 C 202.25 47.503906 201.734375 47.457031 201.226562 47.355469 C 200.71875 47.253906 200.226562 47.105469 199.75 46.90625 C 199.269531 46.707031 198.816406 46.464844 198.386719 46.179688 C 197.957031 45.890625 197.558594 45.566406 197.191406 45.199219 C 196.824219 44.832031 196.5 44.4375 196.210938 44.007812 C 195.921875 43.574219 195.679688 43.121094 195.480469 42.644531 C 195.285156 42.167969 195.132812 41.675781 195.035156 41.167969 C 194.933594 40.660156 194.882812 40.148438 194.882812 39.628906 C 194.882812 39.113281 194.933594 38.601562 195.035156 38.09375 C 195.132812 37.585938 195.285156 37.09375 195.480469 36.617188 C 195.679688 36.140625 195.921875 35.6875 196.210938 35.253906 C 196.5 34.824219 196.824219 34.429688 197.191406 34.0625 C 197.558594 33.695312 197.957031 33.371094 198.386719 33.082031 C 198.816406 32.796875 199.269531 32.554688 199.75 32.355469 C 200.226562 32.15625 200.71875 32.007812 201.226562 31.90625 C 201.734375 31.804688 202.25 31.753906 202.765625 31.753906 C 203.285156 31.753906 203.796875 31.804688 204.304688 31.90625 C 204.8125 32.007812 205.304688 32.15625 205.785156 32.355469 C 206.261719 32.554688 206.714844 32.796875 207.148438 33.082031 C 207.578125 33.371094 207.976562 33.695312 208.339844 34.0625 C 208.707031 34.429688 209.035156 34.824219 209.320312 35.253906 C 209.609375 35.6875 209.851562 36.140625 210.050781 36.617188 C 210.25 37.09375 210.398438 37.585938 210.5 38.09375 C 210.601562 38.601562 210.652344 39.113281 210.652344 39.628906 Z M 210.652344 39.628906 " fill-opacity="1" fill-rule="nonzero"/><path fill="#fccc38" d="M 242.1875 59.316406 C 242.1875 59.835938 242.136719 60.347656 242.039062 60.855469 C 241.9375 61.363281 241.785156 61.855469 241.589844 62.332031 C 241.390625 62.808594 241.148438 63.261719 240.859375 63.695312 C 240.574219 64.125 240.246094 64.519531 239.878906 64.886719 C 239.515625 65.253906 239.117188 65.578125 238.683594 65.867188 C 238.253906 66.152344 237.800781 66.394531 237.320312 66.59375 C 236.84375 66.792969 236.351562 66.941406 235.84375 67.042969 C 235.335938 67.144531 234.824219 67.191406 234.304688 67.191406 C 233.785156 67.191406 233.273438 67.144531 232.765625 67.042969 C 232.257812 66.941406 231.765625 66.792969 231.289062 66.59375 C 230.808594 66.394531 230.355469 66.152344 229.925781 65.867188 C 229.492188 65.578125 229.09375 65.253906 228.730469 64.886719 C 228.363281 64.519531 228.035156 64.125 227.75 63.695312 C 227.460938 63.261719 227.21875 62.808594 227.019531 62.332031 C 226.820312 61.855469 226.671875 61.363281 226.570312 60.855469 C 226.46875 60.347656 226.421875 59.835938 226.421875 59.316406 C 226.421875 58.800781 226.46875 58.289062 226.570312 57.78125 C 226.671875 57.273438 226.820312 56.78125 227.019531 56.304688 C 227.21875 55.828125 227.460938 55.375 227.75 54.941406 C 228.035156 54.511719 228.363281 54.117188 228.730469 53.75 C 229.09375 53.382812 229.492188 53.058594 229.925781 52.769531 C 230.355469 52.484375 230.808594 52.242188 231.289062 52.042969 C 231.765625 51.84375 232.257812 51.695312 232.765625 51.59375 C 233.273438 51.492188 233.785156 51.441406 234.304688 51.441406 C 234.824219 51.441406 235.335938 51.492188 235.84375 51.59375 C 236.351562 51.695312 236.84375 51.84375 237.320312 52.042969 C 237.800781 52.242188 238.253906 52.484375 238.683594 52.769531 C 239.117188 53.058594 239.515625 53.382812 239.878906 53.75 C 240.246094 54.117188 240.574219 54.511719 240.859375 54.941406 C 241.148438 55.375 241.390625 55.828125 241.589844 56.304688 C 241.785156 56.78125 241.9375 57.273438 242.039062 57.78125 C 242.136719 58.289062 242.1875 58.800781 242.1875 59.316406 Z M 242.1875 59.316406 " fill-opacity="1" fill-rule="nonzero"/><path fill="#fccc38" d="M 261.902344 110.503906 C 261.902344 111.023438 261.851562 111.535156 261.75 112.042969 C 261.648438 112.550781 261.5 113.042969 261.300781 113.519531 C 261.101562 113.996094 260.859375 114.449219 260.570312 114.882812 C 260.285156 115.3125 259.957031 115.707031 259.589844 116.074219 C 259.226562 116.441406 258.828125 116.765625 258.394531 117.054688 C 257.964844 117.339844 257.511719 117.582031 257.035156 117.78125 C 256.554688 117.980469 256.0625 118.128906 255.554688 118.230469 C 255.046875 118.332031 254.535156 118.378906 254.015625 118.378906 C 253.5 118.378906 252.984375 118.332031 252.476562 118.230469 C 251.96875 118.128906 251.476562 117.980469 251 117.78125 C 250.519531 117.582031 250.066406 117.339844 249.636719 117.054688 C 249.207031 116.765625 248.808594 116.441406 248.441406 116.074219 C 248.074219 115.707031 247.746094 115.3125 247.460938 114.882812 C 247.171875 114.449219 246.929688 113.996094 246.730469 113.519531 C 246.535156 113.042969 246.382812 112.550781 246.28125 112.042969 C 246.183594 111.535156 246.132812 111.023438 246.132812 110.503906 C 246.132812 109.988281 246.183594 109.476562 246.28125 108.96875 C 246.382812 108.460938 246.535156 107.96875 246.730469 107.492188 C 246.929688 107.015625 247.171875 106.5625 247.460938 106.128906 C 247.746094 105.699219 248.074219 105.304688 248.441406 104.9375 C 248.808594 104.570312 249.207031 104.246094 249.636719 103.957031 C 250.066406 103.671875 250.519531 103.429688 251 103.230469 C 251.476562 103.03125 251.96875 102.882812 252.476562 102.78125 C 252.984375 102.679688 253.5 102.628906 254.015625 102.628906 C 254.535156 102.628906 255.046875 102.679688 255.554688 102.78125 C 256.0625 102.882812 256.554688 103.03125 257.035156 103.230469 C 257.511719 103.429688 257.964844 103.671875 258.394531 103.957031 C 258.828125 104.246094 259.226562 104.570312 259.589844 104.9375 C 259.957031 105.304688 260.285156 105.699219 260.570312 106.128906 C 260.859375 106.5625 261.101562 107.015625 261.300781 107.492188 C 261.5 107.96875 261.648438 108.460938 261.75 108.96875 C 261.851562 109.476562 261.902344 109.988281 261.902344 110.503906 Z M 261.902344 110.503906 " fill-opacity="1" fill-rule="nonzero"/><path fill="#fccc38" d="M 218.535156 157.753906 C 218.535156 158.273438 218.484375 158.785156 218.382812 159.292969 C 218.28125 159.800781 218.132812 160.292969 217.933594 160.769531 C 217.738281 161.246094 217.496094 161.699219 217.207031 162.132812 C 216.917969 162.5625 216.59375 162.957031 216.226562 163.324219 C 215.859375 163.691406 215.460938 164.015625 215.03125 164.304688 C 214.601562 164.589844 214.148438 164.832031 213.667969 165.03125 C 213.191406 165.230469 212.695312 165.378906 212.1875 165.480469 C 211.679688 165.582031 211.167969 165.628906 210.652344 165.628906 C 210.132812 165.628906 209.621094 165.582031 209.113281 165.480469 C 208.605469 165.378906 208.113281 165.230469 207.632812 165.03125 C 207.15625 164.832031 206.699219 164.589844 206.269531 164.304688 C 205.839844 164.015625 205.441406 163.691406 205.074219 163.324219 C 204.710938 162.957031 204.382812 162.5625 204.09375 162.132812 C 203.808594 161.699219 203.566406 161.246094 203.367188 160.769531 C 203.167969 160.292969 203.019531 159.800781 202.917969 159.292969 C 202.816406 158.785156 202.765625 158.273438 202.765625 157.753906 C 202.765625 157.238281 202.816406 156.726562 202.917969 156.21875 C 203.019531 155.710938 203.167969 155.21875 203.367188 154.742188 C 203.566406 154.265625 203.808594 153.8125 204.09375 153.378906 C 204.382812 152.949219 204.710938 152.554688 205.074219 152.1875 C 205.441406 151.820312 205.839844 151.496094 206.269531 151.207031 C 206.699219 150.921875 207.15625 150.679688 207.632812 150.480469 C 208.113281 150.28125 208.605469 150.132812 209.113281 150.03125 C 209.621094 149.929688 210.132812 149.878906 210.652344 149.878906 C 211.167969 149.878906 211.679688 149.929688 212.1875 150.03125 C 212.695312 150.132812 213.191406 150.28125 213.667969 150.480469 C 214.148438 150.679688 214.601562 150.921875 215.03125 151.207031 C 215.460938 151.496094 215.859375 151.820312 216.226562 152.1875 C 216.59375 152.554688 216.917969 152.949219 217.207031 153.378906 C 217.496094 153.8125 217.738281 154.265625 217.933594 154.742188 C 218.132812 155.21875 218.28125 155.710938 218.382812 156.21875 C 218.484375 156.726562 218.535156 157.238281 218.535156 157.753906 Z M 218.535156 157.753906 " fill-opacity="1" fill-rule="nonzero"/><path fill="#000000" d="M 220.777344 194.910156 L 213.449219 192.011719 C 214.417969 189.570312 215.621094 187.050781 217.132812 184.320312 L 224.035156 188.128906 C 222.691406 190.558594 221.625 192.78125 220.777344 194.910156 Z M 220.777344 194.910156 " fill-opacity="1" fill-rule="nonzero"/><path fill="#000000" d="M 228.042969 181.492188 L 221.425781 177.214844 C 222.902344 174.929688 224.449219 172.671875 226 170.445312 L 232.472656 174.945312 C 230.972656 177.101562 229.476562 179.285156 228.042969 181.492188 Z M 228.042969 181.492188 " fill-opacity="1" fill-rule="nonzero"/><path fill="#000000" d="M 237.078125 168.363281 L 230.601562 163.871094 C 232.15625 161.632812 233.636719 159.453125 234.96875 157.347656 L 241.636719 161.535156 C 240.253906 163.746094 238.703125 166.027344 237.078125 168.363281 Z M 237.078125 168.363281 " fill-opacity="1" fill-rule="nonzero"/><path fill="#000000" d="M 245.777344 154.34375 L 238.824219 150.628906 C 240.050781 148.324219 241.234375 145.988281 242.367188 143.628906 L 249.480469 147.019531 C 248.300781 149.484375 247.066406 151.933594 245.777344 154.34375 Z M 245.777344 154.34375 " fill-opacity="1" fill-rule="nonzero"/><path fill="#000000" d="M 252.855469 139.546875 L 245.597656 136.464844 C 246.632812 134.046875 247.605469 131.609375 248.523438 129.171875 L 255.90625 131.941406 C 254.949219 134.484375 253.933594 137.019531 252.855469 139.546875 Z M 252.855469 139.546875 " fill-opacity="1" fill-rule="nonzero"/><path fill="#000000" d="M 265.511719 91.984375 L 257.65625 91.324219 C 257.855469 88.925781 257.957031 86.589844 257.957031 84.390625 L 257.953125 83.667969 L 265.839844 83.605469 L 265.84375 84.390625 C 265.84375 86.808594 265.734375 89.367188 265.511719 91.984375 Z M 265.511719 91.984375 " fill-opacity="1" fill-rule="nonzero"/><path fill="#000000" d="M 257.464844 76.105469 C 257.164062 73.59375 256.722656 71.085938 256.152344 68.636719 L 263.828125 66.847656 C 264.46875 69.574219 264.964844 72.375 265.292969 75.171875 Z M 257.464844 76.105469 " fill-opacity="1" fill-rule="nonzero"/><path fill="#000000" d="M 254.015625 61.371094 C 253.171875 59.003906 252.183594 56.65625 251.074219 54.378906 L 258.164062 50.933594 C 259.398438 53.472656 260.503906 56.09375 261.441406 58.730469 Z M 254.015625 61.371094 " fill-opacity="1" fill-rule="nonzero"/><path fill="#000000" d="M 247.378906 47.765625 C 246.03125 45.648438 244.550781 43.5625 242.96875 41.574219 L 249.144531 36.675781 C 250.898438 38.886719 252.546875 41.199219 254.039062 43.558594 Z M 247.378906 47.765625 " fill-opacity="1" fill-rule="nonzero"/><path fill="#000000" d="M 237.921875 35.878906 C 236.144531 34.074219 234.257812 32.34375 232.304688 30.726562 L 237.328125 24.660156 C 239.488281 26.445312 241.578125 28.359375 243.546875 30.355469 Z M 237.921875 35.878906 " fill-opacity="1" fill-rule="nonzero"/><path fill="#000000" d="M 226.183594 26.15625 C 224.089844 24.75 221.886719 23.421875 219.632812 22.203125 L 223.378906 15.273438 C 225.855469 16.613281 228.277344 18.074219 230.582031 19.621094 Z M 226.183594 26.15625 " fill-opacity="1" fill-rule="nonzero"/><path fill="#000000" d="M 212.722656 18.894531 C 210.414062 17.914062 207.996094 17.023438 205.542969 16.246094 L 207.925781 8.742188 C 210.617188 9.59375 213.269531 10.570312 215.808594 11.652344 Z M 212.722656 18.894531 " fill-opacity="1" fill-rule="nonzero"/><path fill="#000000" d="M 198.125 14.261719 C 195.652344 13.710938 193.109375 13.269531 190.566406 12.941406 L 191.574219 5.128906 C 194.347656 5.492188 197.128906 5.976562 199.832031 6.570312 Z M 198.125 14.261719 " fill-opacity="1" fill-rule="nonzero"/><g clip-path="url(#6270c8025d)"><path fill="#000000" d="M 254.015625 98.691406 C 248.882812 98.691406 244.546875 101.996094 242.914062 106.566406 L 218.535156 106.566406 L 218.535156 90.816406 L 234.304688 90.816406 C 236.480469 90.816406 238.246094 89.058594 238.246094 86.878906 L 238.246094 70.40625 C 242.824219 68.777344 246.132812 64.445312 246.132812 59.316406 C 246.132812 52.804688 240.824219 47.503906 234.304688 47.503906 C 227.785156 47.503906 222.476562 52.804688 222.476562 59.316406 C 222.476562 64.445312 225.785156 68.777344 230.363281 70.40625 L 230.363281 82.941406 L 218.535156 82.941406 L 218.535156 75.066406 C 218.535156 72.890625 216.769531 71.128906 214.59375 71.128906 L 206.707031 71.128906 L 206.707031 50.71875 C 211.285156 49.089844 214.59375 44.757812 214.59375 39.628906 C 214.59375 33.117188 209.285156 27.816406 202.765625 27.816406 C 196.246094 27.816406 190.941406 33.117188 190.941406 39.628906 C 190.941406 44.757812 194.246094 49.089844 198.824219 50.71875 L 198.824219 71.128906 L 183.054688 71.128906 L 183.054688 8.269531 C 183.054688 6.089844 181.289062 4.332031 179.113281 4.332031 C 130.480469 4.332031 92.382812 39.5 92.382812 84.390625 C 92.382812 105.71875 100.859375 133.953125 114.503906 158.074219 C 116.953125 162.40625 120.152344 166.957031 123.535156 171.777344 C 130.691406 181.964844 138.652344 193.421875 139.519531 203.394531 C 136.621094 205.433594 134.785156 208.742188 134.785156 212.742188 C 134.785156 215.515625 135.785156 218.035156 137.394531 220.054688 C 135.171875 222.234375 133.777344 225.304688 133.777344 228.773438 C 133.777344 235.285156 139.082031 240.585938 145.601562 240.585938 L 212.621094 240.585938 C 219.140625 240.585938 224.449219 235.285156 224.449219 228.496094 C 224.449219 225.164062 223.050781 222.164062 220.820312 220.015625 C 222.433594 217.957031 223.441406 215.367188 223.441406 212.472656 C 223.441406 206.054688 218.355469 201.214844 211.613281 201.214844 L 183.054688 201.214844 L 183.054688 126.253906 L 190.941406 126.253906 L 190.941406 138.066406 C 190.941406 140.246094 192.707031 142.003906 194.882812 142.003906 L 206.707031 142.003906 L 206.707031 146.667969 C 202.132812 148.296875 198.824219 152.628906 198.824219 157.753906 C 198.824219 164.269531 204.128906 169.566406 210.652344 169.566406 C 217.171875 169.566406 222.476562 164.269531 222.476562 157.753906 C 222.476562 152.628906 219.171875 148.296875 214.59375 146.667969 L 214.59375 138.066406 C 214.59375 135.890625 212.828125 134.128906 210.652344 134.128906 L 198.824219 134.128906 L 198.824219 126.253906 L 214.59375 126.253906 C 216.769531 126.253906 218.535156 124.496094 218.535156 122.316406 L 218.535156 114.441406 L 242.914062 114.441406 C 244.546875 119.015625 248.882812 122.316406 254.015625 122.316406 C 260.535156 122.316406 265.84375 117.019531 265.84375 110.503906 C 265.84375 103.992188 260.535156 98.691406 254.015625 98.691406 Z M 234.304688 55.378906 C 236.476562 55.378906 238.246094 57.144531 238.246094 59.316406 C 238.246094 61.492188 236.476562 63.253906 234.304688 63.253906 C 232.132812 63.253906 230.363281 61.492188 230.363281 59.316406 C 230.363281 57.144531 232.132812 55.378906 234.304688 55.378906 Z M 129.992188 167.257812 C 126.71875 162.59375 123.628906 158.195312 121.367188 154.199219 C 108.550781 131.539062 100.265625 104.140625 100.265625 84.390625 C 100.265625 45.125 132.859375 14.109375 175.171875 12.289062 L 175.171875 39.796875 C 174.125 39.875 173.058594 39.96875 171.914062 40.105469 C 170.238281 40.3125 168.878906 41.554688 168.535156 43.203125 L 167.332031 48.90625 C 166.34375 49.144531 165.359375 49.40625 164.371094 49.703125 L 160.441406 45.328125 C 159.320312 44.074219 157.515625 43.671875 155.960938 44.332031 C 151.695312 46.148438 147.519531 48.582031 143.558594 51.566406 C 142.207031 52.582031 141.660156 54.335938 142.183594 55.9375 L 143.996094 61.441406 C 143.25 62.140625 142.523438 62.867188 141.824219 63.609375 L 136.316406 61.804688 C 134.71875 61.285156 132.957031 61.832031 131.9375 63.171875 C 128.945312 67.132812 126.511719 71.300781 124.691406 75.5625 C 124.03125 77.117188 124.433594 78.914062 125.691406 80.042969 L 130.074219 83.964844 C 129.777344 84.9375 129.515625 85.914062 129.28125 86.886719 L 123.152344 88.113281 C 121.308594 88.484375 119.976562 90.101562 119.976562 91.980469 L 119.976562 105.40625 C 119.976562 107.285156 121.308594 108.902344 123.148438 109.265625 L 129.277344 110.488281 C 129.511719 111.464844 129.773438 112.441406 130.070312 113.414062 L 125.6875 117.335938 C 124.429688 118.464844 124.03125 120.261719 124.6875 121.8125 C 126.503906 126.074219 128.941406 130.246094 131.933594 134.207031 C 132.953125 135.550781 134.71875 136.089844 136.3125 135.574219 L 141.820312 133.769531 C 142.523438 134.507812 143.246094 135.238281 143.992188 135.9375 L 142.179688 141.433594 C 141.65625 143.035156 142.203125 144.792969 143.554688 145.804688 C 147.515625 148.792969 151.6875 151.226562 155.960938 153.046875 C 157.515625 153.699219 159.320312 153.304688 160.441406 152.050781 L 164.371094 147.675781 C 165.359375 147.972656 166.34375 148.238281 167.332031 148.472656 L 168.53125 154.171875 C 168.878906 155.824219 170.238281 157.066406 171.910156 157.273438 C 173.054688 157.414062 174.121094 157.507812 175.171875 157.582031 L 175.171875 201.203125 L 147.234375 201.203125 C 145.621094 189.601562 137.394531 177.796875 129.992188 167.257812 Z M 143.632812 98.691406 C 143.632812 116.902344 157.457031 131.933594 175.171875 133.898438 L 175.171875 147.441406 L 174.515625 144.339844 C 174.1875 142.773438 172.9375 141.558594 171.359375 141.273438 C 169.066406 140.863281 166.757812 140.238281 164.492188 139.421875 C 164.058594 139.269531 163.605469 139.191406 163.160156 139.191406 C 162.058594 139.191406 160.980469 139.652344 160.222656 140.5 L 156.515625 144.632812 C 154.503906 143.632812 152.519531 142.464844 150.582031 141.152344 L 152.292969 135.949219 C 152.792969 134.421875 152.320312 132.753906 151.09375 131.714844 C 149.289062 130.183594 147.589844 128.492188 146.046875 126.675781 C 145.011719 125.457031 143.332031 124.992188 141.8125 125.484375 L 136.601562 127.195312 C 135.28125 125.253906 134.121094 123.273438 133.117188 121.265625 L 137.257812 117.566406 C 138.453125 116.496094 138.878906 114.808594 138.335938 113.300781 C 137.519531 111.027344 136.894531 108.71875 136.484375 106.441406 C 136.195312 104.851562 134.964844 103.59375 133.375 103.28125 L 127.863281 102.179688 L 127.863281 95.207031 L 133.375 94.109375 C 134.964844 93.796875 136.191406 92.542969 136.484375 90.949219 C 136.894531 88.671875 137.519531 86.363281 138.335938 84.085938 C 138.878906 82.574219 138.453125 80.886719 137.257812 79.820312 L 133.121094 76.125 C 134.125 74.117188 135.289062 72.136719 136.605469 70.195312 L 141.816406 71.90625 C 143.332031 72.398438 145.011719 71.933594 146.050781 70.714844 C 147.589844 68.902344 149.289062 67.207031 151.101562 65.664062 C 152.324219 64.628906 152.796875 62.957031 152.296875 61.441406 L 150.585938 56.238281 C 152.527344 54.925781 154.507812 53.757812 156.519531 52.757812 L 160.226562 56.890625 C 161.296875 58.085938 162.992188 58.503906 164.496094 57.96875 C 166.761719 57.152344 169.070312 56.53125 171.363281 56.117188 C 172.941406 55.832031 174.191406 54.621094 174.519531 53.054688 L 175.171875 49.949219 L 175.171875 63.488281 C 157.457031 65.453125 143.632812 80.480469 143.632812 98.691406 Z M 175.171875 71.445312 L 175.171875 125.941406 C 161.816406 124.019531 151.515625 112.550781 151.515625 98.691406 C 151.515625 84.835938 161.816406 73.367188 175.171875 71.445312 Z M 212.621094 232.707031 L 145.601562 232.707031 C 143.429688 232.707031 141.660156 230.941406 141.660156 228.492188 C 141.660156 226.320312 143.429688 224.554688 145.601562 224.554688 L 212.621094 224.554688 C 214.792969 224.554688 216.5625 226.320312 216.5625 228.769531 C 216.5625 230.941406 214.792969 232.707031 212.621094 232.707031 Z M 211.613281 209.082031 C 213.507812 209.082031 215.554688 210.140625 215.554688 212.742188 C 215.554688 214.917969 213.785156 216.679688 211.613281 216.679688 L 146.613281 216.679688 C 144.441406 216.679688 142.671875 214.917969 142.671875 212.46875 C 142.671875 210.140625 144.714844 209.085938 146.613281 209.085938 L 211.613281 209.085938 Z M 210.652344 153.816406 C 212.824219 153.816406 214.59375 155.582031 214.59375 157.753906 C 214.59375 159.929688 212.824219 161.691406 210.652344 161.691406 C 208.480469 161.691406 206.707031 159.929688 206.707031 157.753906 C 206.707031 155.582031 208.480469 153.816406 210.652344 153.816406 Z M 202.765625 35.691406 C 204.9375 35.691406 206.707031 37.457031 206.707031 39.628906 C 206.707031 41.804688 204.9375 43.566406 202.765625 43.566406 C 200.59375 43.566406 198.824219 41.804688 198.824219 39.628906 C 198.824219 37.457031 200.59375 35.691406 202.765625 35.691406 Z M 210.652344 118.378906 L 183.054688 118.378906 L 183.054688 79.003906 L 210.652344 79.003906 Z M 254.015625 114.441406 C 251.84375 114.441406 250.074219 112.679688 250.074219 110.503906 C 250.074219 108.332031 251.84375 106.566406 254.015625 106.566406 C 256.1875 106.566406 257.957031 108.332031 257.957031 110.503906 C 257.957031 112.679688 256.1875 114.441406 254.015625 114.441406 Z M 254.015625 114.441406 " fill-opacity="1" fill-rule="nonzero"/></g><path fill="#fccc38" d="M 68.730469 216.816406 L 76.613281 216.816406 L 76.613281 224.691406 L 68.730469 224.691406 Z M 68.730469 216.816406 " fill-opacity="1" fill-rule="nonzero"/><g clip-path="url(#41603cf5e0)"><path fill="#fccc38" d="M 68.730469 232.566406 L 76.613281 232.566406 L 76.613281 240.441406 L 68.730469 240.441406 Z M 68.730469 232.566406 " fill-opacity="1" fill-rule="nonzero"/></g><path fill="#fccc38" d="M 76.613281 224.691406 L 84.496094 224.691406 L 84.496094 232.566406 L 76.613281 232.566406 Z M 76.613281 224.691406 " fill-opacity="1" fill-rule="nonzero"/><g clip-path="url(#18fd50ede8)"><path fill="#fccc38" d="M 60.84375 224.691406 L 68.730469 224.691406 L 68.730469 232.566406 L 60.84375 232.566406 Z M 60.84375 224.691406 " fill-opacity="1" fill-rule="nonzero"/></g><g clip-path="url(#507eb9cead)"><path fill="#fccc38" d="M 285.554688 4.191406 L 293.4375 4.191406 L 293.4375 12.066406 L 285.554688 12.066406 Z M 285.554688 4.191406 " fill-opacity="1" fill-rule="nonzero"/></g><path fill="#fccc38" d="M 285.554688 19.941406 L 293.4375 19.941406 L 293.4375 27.816406 L 285.554688 27.816406 Z M 285.554688 19.941406 " fill-opacity="1" fill-rule="nonzero"/><g clip-path="url(#a5df289b2f)"><path fill="#fccc38" d="M 293.4375 12.066406 L 301.324219 12.066406 L 301.324219 19.941406 L 293.4375 19.941406 Z M 293.4375 12.066406 " fill-opacity="1" fill-rule="nonzero"/></g><path fill="#fccc38" d="M 277.667969 12.066406 L 285.554688 12.066406 L 285.554688 19.941406 L 277.667969 19.941406 Z M 277.667969 12.066406 " fill-opacity="1" fill-rule="nonzero"/></svg>