<svg xmlns="http://www.w3.org/2000/svg" xmlns:xlink="http://www.w3.org/1999/xlink" width="1700" zoomAndPan="magnify" viewBox="0 0 1275 449.999984" height="600" preserveAspectRatio="xMidYMid meet" version="1.0"><defs><g/><clipPath id="5e80df4eb8"><path d="M 187 335 L 335 335 L 335 405.253906 L 187 405.253906 Z M 187 335 " clip-rule="nonzero"/></clipPath><clipPath id="591fe4f47e"><path d="M 65.09375 236.503906 L 214 236.503906 L 214 306 L 65.09375 306 Z M 65.09375 236.503906 " clip-rule="nonzero"/></clipPath><clipPath id="186d71a264"><path d="M 65.09375 335 L 214 335 L 214 405.253906 L 65.09375 405.253906 Z M 65.09375 335 " clip-rule="nonzero"/></clipPath><clipPath id="a08a2557d3"><path d="M 93 11.484375 L 246 11.484375 L 246 219.984375 L 93 219.984375 Z M 93 11.484375 " clip-rule="nonzero"/></clipPath><clipPath id="533aace960"><path d="M 72 213 L 80 213 L 80 219.984375 L 72 219.984375 Z M 72 213 " clip-rule="nonzero"/></clipPath><clipPath id="c55b6be1f2"><path d="M 65.09375 206 L 73 206 L 73 214 L 65.09375 214 Z M 65.09375 206 " clip-rule="nonzero"/></clipPath><clipPath id="387949482d"><path d="M 263 11.484375 L 271 11.484375 L 271 19 L 263 19 Z M 263 11.484375 " clip-rule="nonzero"/></clipPath><clipPath id="64591cea11"><path d="M 270 18 L 277.34375 18 L 277.34375 26 L 270 26 Z M 270 18 " clip-rule="nonzero"/></clipPath></defs><g clip-path="url(#5e80df4eb8)"><path fill="#940505" d="M 334.820312 386.847656 L 316.507812 405.199219 L 187.171875 405.199219 L 256.433594 335.789062 L 334.820312 335.789062 Z M 334.820312 386.847656 " fill-opacity="1" fill-rule="nonzero"/></g><g clip-path="url(#591fe4f47e)"><path fill="#ffffff" d="M 65.359375 236.503906 L 143.746094 236.503906 L 213.007812 305.914062 L 83.675781 305.914062 L 65.359375 287.5625 Z M 65.359375 236.503906 " fill-opacity="1" fill-rule="nonzero"/></g><g clip-path="url(#186d71a264)"><path fill="#ffffff" d="M 65.359375 354.140625 L 83.675781 335.789062 L 213.007812 335.789062 L 143.746094 405.199219 L 65.359375 405.199219 Z M 65.359375 354.140625 " fill-opacity="1" fill-rule="nonzero"/></g><g fill="#ffffff" fill-opacity="1"><g transform="translate(209.3619, 304.939891)"><g><path d="M 50.265625 1.890625 C 42.359375 1.890625 35.023438 -0.242188 28.265625 -4.515625 C 21.515625 -8.785156 16.082031 -15.289062 11.96875 -24.03125 C 7.863281 -32.78125 5.8125 -43.515625 5.8125 -56.234375 C 5.8125 -67.804688 7.851562 -77.742188 11.9375 -86.046875 C 16.019531 -94.347656 21.554688 -100.644531 28.546875 -104.9375 C 35.535156 -109.226562 43.351562 -111.375 52 -111.375 C 57.289062 -111.375 61.765625 -110.863281 65.421875 -109.84375 C 69.085938 -108.820312 71.96875 -107.644531 74.0625 -106.3125 C 76.164062 -104.976562 78.1875 -103.421875 80.125 -101.640625 L 71.328125 -85.140625 C 69.492188 -87.128906 67.867188 -88.660156 66.453125 -89.734375 C 65.035156 -90.804688 63.238281 -91.671875 61.0625 -92.328125 C 58.894531 -92.984375 56.132812 -93.3125 52.78125 -93.3125 C 47.539062 -93.3125 43.035156 -91.78125 39.265625 -88.71875 C 35.503906 -85.65625 32.628906 -81.410156 30.640625 -75.984375 C 28.648438 -70.566406 27.65625 -64.351562 27.65625 -57.34375 C 27.65625 -48.539062 28.6875 -41.023438 30.75 -34.796875 C 32.820312 -28.566406 35.625 -23.878906 39.15625 -20.734375 C 42.6875 -17.597656 46.65625 -16.03125 51.0625 -16.03125 C 55.71875 -16.03125 59.835938 -16.679688 63.421875 -17.984375 C 67.015625 -19.296875 69.753906 -20.945312 71.640625 -22.9375 L 80.28125 -7.390625 C 77.082031 -4.765625 73.21875 -2.5625 68.6875 -0.78125 C 64.15625 1 58.015625 1.890625 50.265625 1.890625 Z M 50.265625 1.890625 "/></g></g></g><g fill="#ffffff" fill-opacity="1"><g transform="translate(292.1444, 304.939891)"><g><path d="M 10.84375 -78.234375 L 28.59375 -78.234375 L 29.53125 -64.40625 C 31.207031 -68.4375 33.851562 -71.90625 37.46875 -74.8125 C 41.082031 -77.71875 46.1875 -79.171875 52.78125 -79.171875 C 55.394531 -79.171875 57.804688 -78.753906 60.015625 -77.921875 L 55.609375 -57.34375 C 54.722656 -58.226562 53.660156 -58.867188 52.421875 -59.265625 C 51.191406 -59.660156 49.6875 -59.859375 47.90625 -59.859375 C 44.25 -59.859375 41.097656 -59.082031 38.453125 -57.53125 C 35.804688 -55.988281 33.8125 -54.195312 32.46875 -52.15625 C 31.132812 -50.113281 30.46875 -48.4375 30.46875 -47.125 L 30.46875 0 L 10.84375 0 Z M 10.84375 -78.234375 "/></g></g></g><g fill="#ffffff" fill-opacity="1"><g transform="translate(352.149938, 304.939891)"><g><path d="M 43.359375 2.046875 C 34.929688 2.046875 27.96875 0.253906 22.46875 -3.328125 C 16.96875 -6.921875 12.945312 -11.726562 10.40625 -17.75 C 7.863281 -23.769531 6.59375 -30.578125 6.59375 -38.171875 C 6.59375 -45.921875 8.019531 -52.976562 10.875 -59.34375 C 13.726562 -65.707031 17.90625 -70.757812 23.40625 -74.5 C 28.90625 -78.25 35.453125 -80.125 43.046875 -80.125 C 54.359375 -80.125 62.445312 -76.863281 67.3125 -70.34375 C 72.1875 -63.820312 74.625 -54.09375 74.625 -41.15625 C 74.625 -38.644531 74.519531 -35.816406 74.3125 -32.671875 L 27.171875 -32.671875 C 27.492188 -26.335938 29.265625 -21.453125 32.484375 -18.015625 C 35.703125 -14.585938 40.425781 -12.875 46.65625 -12.875 C 49.90625 -12.875 53.390625 -13.59375 57.109375 -15.03125 C 60.828125 -16.476562 63.570312 -18.222656 65.34375 -20.265625 L 71.640625 -5.34375 C 64.253906 -0.414062 54.828125 2.046875 43.359375 2.046875 Z M 54.671875 -44.921875 C 54.671875 -52.617188 53.710938 -57.921875 51.796875 -60.828125 C 49.890625 -63.734375 47.128906 -65.1875 43.515625 -65.1875 C 38.429688 -65.1875 34.488281 -63.300781 31.6875 -59.53125 C 28.882812 -55.769531 27.328125 -50.898438 27.015625 -44.921875 Z M 54.671875 -44.921875 "/></g></g></g><g fill="#ffffff" fill-opacity="1"><g transform="translate(433.675788, 304.939891)"><g><path d="M 27.328125 2.203125 C 22.671875 2.203125 18.742188 1.15625 15.546875 -0.9375 C 12.359375 -3.03125 9.960938 -5.859375 8.359375 -9.421875 C 6.765625 -12.984375 5.96875 -16.960938 5.96875 -21.359375 C 5.96875 -25.179688 7.238281 -28.988281 9.78125 -32.78125 C 12.320312 -36.582031 16.835938 -39.816406 23.328125 -42.484375 C 29.816406 -45.160156 38.585938 -46.5 49.640625 -46.5 L 49.640625 -50.109375 C 49.640625 -54.398438 48.601562 -57.722656 46.53125 -60.078125 C 44.46875 -62.441406 40.84375 -63.625 35.65625 -63.625 C 31.570312 -63.625 27.578125 -62.925781 23.671875 -61.53125 C 19.773438 -60.144531 16.910156 -58.429688 15.078125 -56.390625 L 8.796875 -71.484375 C 12.359375 -73.890625 16.78125 -75.929688 22.0625 -77.609375 C 27.351562 -79.285156 32.984375 -80.125 38.953125 -80.125 C 46.441406 -80.125 52.375 -78.96875 56.75 -76.65625 C 61.125 -74.351562 64.203125 -71.109375 65.984375 -66.921875 C 67.765625 -62.734375 68.65625 -57.550781 68.65625 -51.375 L 68.65625 0 L 51.84375 0 L 50.421875 -11.15625 C 47.648438 -6.65625 44.363281 -3.300781 40.5625 -1.09375 C 36.769531 1.101562 32.359375 2.203125 27.328125 2.203125 Z M 35.65625 -12.875 C 38.0625 -12.875 40.597656 -13.84375 43.265625 -15.78125 C 45.941406 -17.71875 48.066406 -20.15625 49.640625 -23.09375 L 49.640625 -34.25 C 48.910156 -34.351562 47.65625 -34.40625 45.875 -34.40625 C 40.582031 -34.40625 35.851562 -33.523438 31.6875 -31.765625 C 27.53125 -30.015625 25.453125 -27.175781 25.453125 -23.25 C 25.453125 -19.53125 26.273438 -16.867188 27.921875 -15.265625 C 29.566406 -13.671875 32.144531 -12.875 35.65625 -12.875 Z M 35.65625 -12.875 "/></g></g></g><g fill="#ffffff" fill-opacity="1"><g transform="translate(511.745822, 304.939891)"><g><path d="M 37.390625 2.359375 C 31.578125 2.359375 27.019531 1.363281 23.71875 -0.625 C 20.414062 -2.613281 18.097656 -5.609375 16.765625 -9.609375 C 15.429688 -13.617188 14.765625 -18.898438 14.765625 -25.453125 L 14.765625 -61.734375 L 4.5625 -61.734375 L 4.5625 -78.234375 L 15.546875 -78.234375 L 16.65625 -94.734375 L 33.78125 -102.109375 L 33.78125 -78.234375 L 53.09375 -78.234375 L 53.09375 -61.734375 L 33.78125 -61.734375 L 33.78125 -25.921875 C 33.78125 -21.523438 34.378906 -18.410156 35.578125 -16.578125 C 36.785156 -14.742188 38.59375 -13.828125 41 -13.828125 C 43.144531 -13.828125 45.488281 -14.390625 48.03125 -15.515625 C 50.570312 -16.640625 52.679688 -17.910156 54.359375 -19.328125 L 58.125 -3.453125 C 55.820312 -1.828125 52.507812 -0.453125 48.1875 0.671875 C 43.863281 1.796875 40.265625 2.359375 37.390625 2.359375 Z M 37.390625 2.359375 "/></g></g></g><g fill="#ffffff" fill-opacity="1"><g transform="translate(572.850943, 304.939891)"><g><path d="M 11 -111.84375 L 32.984375 -111.84375 L 32.984375 -90.953125 L 11 -90.953125 Z M 11.78125 -78.234375 L 32.203125 -78.234375 L 32.203125 0 L 11.78125 0 Z M 11.78125 -78.234375 "/></g></g></g><g fill="#ffffff" fill-opacity="1"><g transform="translate(616.834055, 304.939891)"><g><path d="M -0.9375 -78.234375 L 21.046875 -78.234375 L 34.5625 -39.109375 L 38.015625 -26.234375 L 41.15625 -39.109375 L 54.203125 -78.234375 L 74.9375 -78.234375 L 44.765625 0 L 30.796875 0 Z M -0.9375 -78.234375 "/></g></g></g><g fill="#ffffff" fill-opacity="1"><g transform="translate(690.819921, 304.939891)"><g><path d="M 43.359375 2.046875 C 34.929688 2.046875 27.96875 0.253906 22.46875 -3.328125 C 16.96875 -6.921875 12.945312 -11.726562 10.40625 -17.75 C 7.863281 -23.769531 6.59375 -30.578125 6.59375 -38.171875 C 6.59375 -45.921875 8.019531 -52.976562 10.875 -59.34375 C 13.726562 -65.707031 17.90625 -70.757812 23.40625 -74.5 C 28.90625 -78.25 35.453125 -80.125 43.046875 -80.125 C 54.359375 -80.125 62.445312 -76.863281 67.3125 -70.34375 C 72.1875 -63.820312 74.625 -54.09375 74.625 -41.15625 C 74.625 -38.644531 74.519531 -35.816406 74.3125 -32.671875 L 27.171875 -32.671875 C 27.492188 -26.335938 29.265625 -21.453125 32.484375 -18.015625 C 35.703125 -14.585938 40.425781 -12.875 46.65625 -12.875 C 49.90625 -12.875 53.390625 -13.59375 57.109375 -15.03125 C 60.828125 -16.476562 63.570312 -18.222656 65.34375 -20.265625 L 71.640625 -5.34375 C 64.253906 -0.414062 54.828125 2.046875 43.359375 2.046875 Z M 54.671875 -44.921875 C 54.671875 -52.617188 53.710938 -57.921875 51.796875 -60.828125 C 49.890625 -63.734375 47.128906 -65.1875 43.515625 -65.1875 C 38.429688 -65.1875 34.488281 -63.300781 31.6875 -59.53125 C 28.882812 -55.769531 27.328125 -50.898438 27.015625 -44.921875 Z M 54.671875 -44.921875 "/></g></g></g><g fill="#f5383c" fill-opacity="1"><g transform="translate(772.334174, 304.939891)"><g><path d="M 38.796875 2.359375 C 32.617188 2.359375 26.78125 1.597656 21.28125 0.078125 C 15.78125 -1.441406 10.882812 -3.71875 6.59375 -6.75 L 13.203125 -24.65625 C 16.128906 -21.832031 19.722656 -19.609375 23.984375 -17.984375 C 28.253906 -16.359375 32.515625 -15.546875 36.765625 -15.546875 C 43.566406 -15.546875 48.695312 -17.15625 52.15625 -20.375 C 55.613281 -23.601562 57.34375 -27.859375 57.34375 -33.140625 C 57.34375 -39.003906 55.335938 -43.0625 51.328125 -45.3125 C 47.328125 -47.570312 42 -48.703125 35.34375 -48.703125 L 27.015625 -48.703125 L 27.015625 -64.25 L 35.5 -64.25 C 41.726562 -64.25 46.453125 -65.765625 49.671875 -68.796875 C 52.898438 -71.835938 54.515625 -75.875 54.515625 -80.90625 C 54.515625 -85.875 53.046875 -89.335938 50.109375 -91.296875 C 47.179688 -93.265625 42.734375 -94.25 36.765625 -94.25 C 34.617188 -94.25 32.09375 -93.867188 29.1875 -93.109375 C 26.28125 -92.359375 23.4375 -91.257812 20.65625 -89.8125 C 17.882812 -88.375 15.609375 -86.660156 13.828125 -84.671875 L 5.96875 -101.328125 C 9.53125 -104.460938 14.332031 -107.050781 20.375 -109.09375 C 26.425781 -111.144531 33.300781 -112.171875 41 -112.171875 C 48.226562 -112.171875 54.507812 -111.066406 59.84375 -108.859375 C 65.1875 -106.660156 69.296875 -103.453125 72.171875 -99.234375 C 75.054688 -95.023438 76.5 -89.960938 76.5 -84.046875 C 76.5 -80.015625 75.78125 -76.0625 74.34375 -72.1875 C 72.90625 -68.3125 70.796875 -64.972656 68.015625 -62.171875 C 65.242188 -59.367188 62 -57.492188 58.28125 -56.546875 C 62.570312 -56.546875 66.328125 -55.34375 69.546875 -52.9375 C 72.773438 -50.53125 75.238281 -47.363281 76.9375 -43.4375 C 78.632812 -39.507812 79.484375 -35.296875 79.484375 -30.796875 C 79.484375 -24.085938 77.675781 -18.21875 74.0625 -13.1875 C 70.457031 -8.164062 65.5625 -4.316406 59.375 -1.640625 C 53.195312 1.023438 46.335938 2.359375 38.796875 2.359375 Z M 38.796875 2.359375 "/></g></g></g><g fill="#f5383c" fill-opacity="1"><g transform="translate(857.944164, 304.939891)"><g><path d="M 66.53125 -57.96875 C 72.65625 -56.5 77.234375 -53.5 80.265625 -48.96875 C 83.304688 -44.4375 84.828125 -38.640625 84.828125 -31.578125 C 84.828125 -21.523438 81.410156 -13.75 74.578125 -8.25 C 67.742188 -2.75 57.179688 0 42.890625 0 L 13.203125 0 L 13.203125 -109.5 L 42.421875 -109.5 C 67.023438 -109.5 79.328125 -99.757812 79.328125 -80.28125 C 79.328125 -75.71875 78.253906 -71.367188 76.109375 -67.234375 C 73.960938 -63.097656 70.769531 -60.007812 66.53125 -57.96875 Z M 59.859375 -79.640625 C 59.859375 -84.878906 58.234375 -88.570312 54.984375 -90.71875 C 51.734375 -92.863281 47.546875 -93.9375 42.421875 -93.9375 L 32.984375 -93.9375 L 32.984375 -63.625 L 45.71875 -63.625 C 49.0625 -63.625 51.78125 -64.4375 53.875 -66.0625 C 55.976562 -67.6875 57.5 -69.710938 58.4375 -72.140625 C 59.382812 -74.578125 59.859375 -77.078125 59.859375 -79.640625 Z M 45.078125 -15.859375 C 50.734375 -15.859375 55.316406 -17.050781 58.828125 -19.4375 C 62.335938 -21.820312 64.09375 -26.234375 64.09375 -32.671875 C 64.09375 -39.117188 62.269531 -43.453125 58.625 -45.671875 C 54.988281 -47.898438 50.160156 -49.015625 44.140625 -49.015625 L 32.984375 -49.015625 L 32.984375 -15.859375 Z M 45.078125 -15.859375 "/></g></g></g><g fill="#f5383c" fill-opacity="1"><g transform="translate(947.167051, 304.939891)"><g><path d="M 32.359375 -14.296875 L 64.5625 -14.296875 L 64.5625 0 L 2.046875 0 L 37.46875 -63.3125 L 8.640625 -63.3125 L 8.640625 -78.234375 L 67.703125 -78.234375 Z M 32.359375 -14.296875 "/></g></g></g><g fill="#ff914d" fill-opacity="1"><g transform="translate(517.336277, 377.717399)"><g><path d="M 4.359375 0 C 4.140625 0 3.953125 -0.078125 3.796875 -0.234375 C 3.640625 -0.390625 3.5625 -0.582031 3.5625 -0.8125 L 3.5625 -46.171875 C 3.5625 -46.390625 3.640625 -46.578125 3.796875 -46.734375 C 3.953125 -46.890625 4.140625 -46.96875 4.359375 -46.96875 L 12.21875 -46.96875 C 12.4375 -46.96875 12.625 -46.890625 12.78125 -46.734375 C 12.9375 -46.578125 13.015625 -46.390625 13.015625 -46.171875 L 13.015625 -0.8125 C 13.015625 -0.582031 12.9375 -0.390625 12.78125 -0.234375 C 12.625 -0.078125 12.4375 0 12.21875 0 Z M 4.359375 0 "/></g></g></g><g fill="#ff914d" fill-opacity="1"><g transform="translate(535.187183, 377.717399)"><g><path d="M 32.75 -46.96875 C 32.96875 -46.96875 33.15625 -46.890625 33.3125 -46.734375 C 33.46875 -46.578125 33.546875 -46.390625 33.546875 -46.171875 L 33.546875 -39.59375 C 33.546875 -39.375 33.46875 -39.1875 33.3125 -39.03125 C 33.15625 -38.875 32.96875 -38.796875 32.75 -38.796875 L 22.546875 -38.796875 C 22.328125 -38.796875 22.21875 -38.679688 22.21875 -38.453125 L 22.21875 -0.8125 C 22.21875 -0.582031 22.140625 -0.390625 21.984375 -0.234375 C 21.828125 -0.078125 21.632812 0 21.40625 0 L 13.5625 0 C 13.332031 0 13.140625 -0.078125 12.984375 -0.234375 C 12.828125 -0.390625 12.75 -0.582031 12.75 -0.8125 L 12.75 -38.453125 C 12.75 -38.679688 12.640625 -38.796875 12.421875 -38.796875 L 2.546875 -38.796875 C 2.328125 -38.796875 2.140625 -38.875 1.984375 -39.03125 C 1.828125 -39.1875 1.75 -39.375 1.75 -39.59375 L 1.75 -46.171875 C 1.75 -46.390625 1.828125 -46.578125 1.984375 -46.734375 C 2.140625 -46.890625 2.328125 -46.96875 2.546875 -46.96875 Z M 32.75 -46.96875 "/></g></g></g><g fill="#ff914d" fill-opacity="1"><g transform="translate(571.827929, 377.717399)"><g/></g></g><g fill="#ff914d" fill-opacity="1"><g transform="translate(586.591932, 377.717399)"><g><path d="M 17.65625 0.53125 C 14.5625 0.53125 11.851562 -0.015625 9.53125 -1.109375 C 7.207031 -2.203125 5.40625 -3.742188 4.125 -5.734375 C 2.851562 -7.722656 2.21875 -10.015625 2.21875 -12.609375 L 2.21875 -14.359375 C 2.21875 -14.585938 2.296875 -14.78125 2.453125 -14.9375 C 2.609375 -15.09375 2.796875 -15.171875 3.015625 -15.171875 L 10.734375 -15.171875 C 10.960938 -15.171875 11.15625 -15.09375 11.3125 -14.9375 C 11.46875 -14.78125 11.546875 -14.585938 11.546875 -14.359375 L 11.546875 -13.09375 C 11.546875 -11.519531 12.125 -10.207031 13.28125 -9.15625 C 14.445312 -8.101562 16.015625 -7.578125 17.984375 -7.578125 C 19.734375 -7.578125 21.066406 -8.023438 21.984375 -8.921875 C 22.898438 -9.816406 23.359375 -10.957031 23.359375 -12.34375 C 23.359375 -13.375 23.066406 -14.257812 22.484375 -15 C 21.898438 -15.738281 21.082031 -16.429688 20.03125 -17.078125 C 18.976562 -17.722656 17.359375 -18.609375 15.171875 -19.734375 C 12.484375 -21.078125 10.289062 -22.328125 8.59375 -23.484375 C 6.894531 -24.648438 5.441406 -26.148438 4.234375 -27.984375 C 3.023438 -29.816406 2.421875 -32.03125 2.421875 -34.625 C 2.421875 -37.21875 3.035156 -39.488281 4.265625 -41.4375 C 5.492188 -43.382812 7.222656 -44.882812 9.453125 -45.9375 C 11.691406 -46.988281 14.242188 -47.515625 17.109375 -47.515625 C 20.109375 -47.515625 22.769531 -46.941406 25.09375 -45.796875 C 27.425781 -44.660156 29.238281 -43.0625 30.53125 -41 C 31.832031 -38.945312 32.484375 -36.578125 32.484375 -33.890625 L 32.484375 -32.546875 C 32.484375 -32.328125 32.40625 -32.140625 32.25 -31.984375 C 32.09375 -31.828125 31.898438 -31.75 31.671875 -31.75 L 23.953125 -31.75 C 23.734375 -31.75 23.546875 -31.828125 23.390625 -31.984375 C 23.234375 -32.140625 23.15625 -32.328125 23.15625 -32.546875 L 23.15625 -33.75 C 23.15625 -35.363281 22.59375 -36.707031 21.46875 -37.78125 C 20.351562 -38.851562 18.832031 -39.390625 16.90625 -39.390625 C 15.300781 -39.390625 14.039062 -38.972656 13.125 -38.140625 C 12.207031 -37.316406 11.75 -36.171875 11.75 -34.703125 C 11.75 -33.671875 12.015625 -32.773438 12.546875 -32.015625 C 13.085938 -31.253906 13.914062 -30.523438 15.03125 -29.828125 C 16.144531 -29.140625 17.84375 -28.234375 20.125 -27.109375 L 21.546875 -26.3125 C 24.140625 -24.875 26.160156 -23.628906 27.609375 -22.578125 C 29.066406 -21.523438 30.285156 -20.191406 31.265625 -18.578125 C 32.253906 -16.972656 32.75 -15.03125 32.75 -12.75 C 32.75 -8.675781 31.375 -5.441406 28.625 -3.046875 C 25.875 -0.660156 22.21875 0.53125 17.65625 0.53125 Z M 17.65625 0.53125 "/></g></g></g><g fill="#ff914d" fill-opacity="1"><g transform="translate(622.830064, 377.717399)"><g><path d="M 32.140625 -39.65625 C 32.140625 -39.4375 32.0625 -39.25 31.90625 -39.09375 C 31.75 -38.9375 31.5625 -38.859375 31.34375 -38.859375 L 13.359375 -38.859375 C 13.128906 -38.859375 13.015625 -38.742188 13.015625 -38.515625 L 13.015625 -28.046875 C 13.015625 -27.828125 13.128906 -27.71875 13.359375 -27.71875 L 24.5625 -27.71875 C 24.78125 -27.71875 24.96875 -27.640625 25.125 -27.484375 C 25.289062 -27.328125 25.375 -27.132812 25.375 -26.90625 L 25.375 -20.40625 C 25.375 -20.175781 25.289062 -19.984375 25.125 -19.828125 C 24.96875 -19.671875 24.78125 -19.59375 24.5625 -19.59375 L 13.359375 -19.59375 C 13.128906 -19.59375 13.015625 -19.484375 13.015625 -19.265625 L 13.015625 -8.453125 C 13.015625 -8.234375 13.128906 -8.125 13.359375 -8.125 L 31.34375 -8.125 C 31.5625 -8.125 31.75 -8.046875 31.90625 -7.890625 C 32.0625 -7.734375 32.140625 -7.539062 32.140625 -7.3125 L 32.140625 -0.8125 C 32.140625 -0.582031 32.0625 -0.390625 31.90625 -0.234375 C 31.75 -0.078125 31.5625 0 31.34375 0 L 4.359375 0 C 4.140625 0 3.953125 -0.078125 3.796875 -0.234375 C 3.640625 -0.390625 3.5625 -0.582031 3.5625 -0.8125 L 3.5625 -46.171875 C 3.5625 -46.390625 3.640625 -46.578125 3.796875 -46.734375 C 3.953125 -46.890625 4.140625 -46.96875 4.359375 -46.96875 L 31.34375 -46.96875 C 31.5625 -46.96875 31.75 -46.890625 31.90625 -46.734375 C 32.0625 -46.578125 32.140625 -46.390625 32.140625 -46.171875 Z M 32.140625 -39.65625 "/></g></g></g><g fill="#ff914d" fill-opacity="1"><g transform="translate(658.464215, 377.717399)"><g><path d="M 25.640625 0 C 25.140625 0 24.828125 -0.222656 24.703125 -0.671875 L 17.921875 -19.1875 C 17.828125 -19.375 17.710938 -19.46875 17.578125 -19.46875 L 13.359375 -19.46875 C 13.128906 -19.46875 13.015625 -19.351562 13.015625 -19.125 L 13.015625 -0.8125 C 13.015625 -0.582031 12.9375 -0.390625 12.78125 -0.234375 C 12.625 -0.078125 12.4375 0 12.21875 0 L 4.359375 0 C 4.140625 0 3.953125 -0.078125 3.796875 -0.234375 C 3.640625 -0.390625 3.5625 -0.582031 3.5625 -0.8125 L 3.5625 -46.171875 C 3.5625 -46.390625 3.640625 -46.578125 3.796875 -46.734375 C 3.953125 -46.890625 4.140625 -46.96875 4.359375 -46.96875 L 20.734375 -46.96875 C 23.378906 -46.96875 25.726562 -46.375 27.78125 -45.1875 C 29.84375 -44.007812 31.429688 -42.347656 32.546875 -40.203125 C 33.660156 -38.054688 34.21875 -35.59375 34.21875 -32.8125 C 34.21875 -29.945312 33.59375 -27.460938 32.34375 -25.359375 C 31.09375 -23.265625 29.328125 -21.703125 27.046875 -20.671875 C 26.816406 -20.578125 26.75 -20.421875 26.84375 -20.203125 L 34.5 -0.9375 C 34.539062 -0.851562 34.5625 -0.742188 34.5625 -0.609375 C 34.5625 -0.203125 34.316406 0 33.828125 0 Z M 13.359375 -38.859375 C 13.128906 -38.859375 13.015625 -38.742188 13.015625 -38.515625 L 13.015625 -27.046875 C 13.015625 -26.816406 13.128906 -26.703125 13.359375 -26.703125 L 19.1875 -26.703125 C 20.84375 -26.703125 22.1875 -27.25 23.21875 -28.34375 C 24.25 -29.445312 24.765625 -30.914062 24.765625 -32.75 C 24.765625 -34.625 24.25 -36.109375 23.21875 -37.203125 C 22.1875 -38.304688 20.84375 -38.859375 19.1875 -38.859375 Z M 13.359375 -38.859375 "/></g></g></g><g fill="#ff914d" fill-opacity="1"><g transform="translate(696.245769, 377.717399)"><g><path d="M 14.296875 0 C 13.804688 0 13.492188 -0.222656 13.359375 -0.671875 L 1.671875 -46.109375 L 1.671875 -46.375 C 1.671875 -46.769531 1.921875 -46.96875 2.421875 -46.96875 L 10.9375 -46.96875 C 11.425781 -46.96875 11.71875 -46.722656 11.8125 -46.234375 L 18.59375 -15.03125 C 18.632812 -14.851562 18.695312 -14.765625 18.78125 -14.765625 C 18.875 -14.765625 18.941406 -14.851562 18.984375 -15.03125 L 25.703125 -46.234375 C 25.796875 -46.722656 26.085938 -46.96875 26.578125 -46.96875 L 34.828125 -46.96875 C 35.453125 -46.96875 35.695312 -46.679688 35.5625 -46.109375 L 23.75 -0.671875 C 23.625 -0.222656 23.3125 0 22.8125 0 Z M 14.296875 0 "/></g></g></g><g fill="#ff914d" fill-opacity="1"><g transform="translate(734.832602, 377.717399)"><g><path d="M 4.359375 0 C 4.140625 0 3.953125 -0.078125 3.796875 -0.234375 C 3.640625 -0.390625 3.5625 -0.582031 3.5625 -0.8125 L 3.5625 -46.171875 C 3.5625 -46.390625 3.640625 -46.578125 3.796875 -46.734375 C 3.953125 -46.890625 4.140625 -46.96875 4.359375 -46.96875 L 12.21875 -46.96875 C 12.4375 -46.96875 12.625 -46.890625 12.78125 -46.734375 C 12.9375 -46.578125 13.015625 -46.390625 13.015625 -46.171875 L 13.015625 -0.8125 C 13.015625 -0.582031 12.9375 -0.390625 12.78125 -0.234375 C 12.625 -0.078125 12.4375 0 12.21875 0 Z M 4.359375 0 "/></g></g></g><g fill="#ff914d" fill-opacity="1"><g transform="translate(752.683511, 377.717399)"><g><path d="M 18.125 0.53125 C 15.082031 0.53125 12.394531 -0.0703125 10.0625 -1.28125 C 7.738281 -2.488281 5.9375 -4.207031 4.65625 -6.4375 C 3.382812 -8.675781 2.75 -11.273438 2.75 -14.234375 L 2.75 -32.890625 C 2.75 -35.796875 3.382812 -38.351562 4.65625 -40.5625 C 5.9375 -42.78125 7.738281 -44.492188 10.0625 -45.703125 C 12.394531 -46.910156 15.082031 -47.515625 18.125 -47.515625 C 21.164062 -47.515625 23.847656 -46.921875 26.171875 -45.734375 C 28.492188 -44.546875 30.289062 -42.878906 31.5625 -40.734375 C 32.84375 -38.585938 33.484375 -36.082031 33.484375 -33.21875 L 33.484375 -32.890625 C 33.484375 -32.660156 33.40625 -32.457031 33.25 -32.28125 C 33.09375 -32.101562 32.90625 -32.015625 32.6875 -32.015625 L 24.828125 -31.671875 C 24.296875 -31.671875 24.03125 -31.914062 24.03125 -32.40625 L 24.03125 -33.28125 C 24.03125 -35.113281 23.488281 -36.585938 22.40625 -37.703125 C 21.332031 -38.828125 19.90625 -39.390625 18.125 -39.390625 C 16.332031 -39.390625 14.898438 -38.828125 13.828125 -37.703125 C 12.753906 -36.585938 12.21875 -35.113281 12.21875 -33.28125 L 12.21875 -13.625 C 12.21875 -11.789062 12.753906 -10.320312 13.828125 -9.21875 C 14.898438 -8.125 16.332031 -7.578125 18.125 -7.578125 C 19.90625 -7.578125 21.332031 -8.125 22.40625 -9.21875 C 23.488281 -10.320312 24.03125 -11.789062 24.03125 -13.625 L 24.03125 -14.5 C 24.03125 -14.988281 24.296875 -15.234375 24.828125 -15.234375 L 32.6875 -14.890625 C 32.90625 -14.890625 33.09375 -14.8125 33.25 -14.65625 C 33.40625 -14.5 33.484375 -14.3125 33.484375 -14.09375 L 33.484375 -13.890625 C 33.484375 -11.023438 32.84375 -8.492188 31.5625 -6.296875 C 30.289062 -4.109375 28.492188 -2.421875 26.171875 -1.234375 C 23.847656 -0.0546875 21.164062 0.53125 18.125 0.53125 Z M 18.125 0.53125 "/></g></g></g><g fill="#ff914d" fill-opacity="1"><g transform="translate(789.995349, 377.717399)"><g><path d="M 32.140625 -39.65625 C 32.140625 -39.4375 32.0625 -39.25 31.90625 -39.09375 C 31.75 -38.9375 31.5625 -38.859375 31.34375 -38.859375 L 13.359375 -38.859375 C 13.128906 -38.859375 13.015625 -38.742188 13.015625 -38.515625 L 13.015625 -28.046875 C 13.015625 -27.828125 13.128906 -27.71875 13.359375 -27.71875 L 24.5625 -27.71875 C 24.78125 -27.71875 24.96875 -27.640625 25.125 -27.484375 C 25.289062 -27.328125 25.375 -27.132812 25.375 -26.90625 L 25.375 -20.40625 C 25.375 -20.175781 25.289062 -19.984375 25.125 -19.828125 C 24.96875 -19.671875 24.78125 -19.59375 24.5625 -19.59375 L 13.359375 -19.59375 C 13.128906 -19.59375 13.015625 -19.484375 13.015625 -19.265625 L 13.015625 -8.453125 C 13.015625 -8.234375 13.128906 -8.125 13.359375 -8.125 L 31.34375 -8.125 C 31.5625 -8.125 31.75 -8.046875 31.90625 -7.890625 C 32.0625 -7.734375 32.140625 -7.539062 32.140625 -7.3125 L 32.140625 -0.8125 C 32.140625 -0.582031 32.0625 -0.390625 31.90625 -0.234375 C 31.75 -0.078125 31.5625 0 31.34375 0 L 4.359375 0 C 4.140625 0 3.953125 -0.078125 3.796875 -0.234375 C 3.640625 -0.390625 3.5625 -0.582031 3.5625 -0.8125 L 3.5625 -46.171875 C 3.5625 -46.390625 3.640625 -46.578125 3.796875 -46.734375 C 3.953125 -46.890625 4.140625 -46.96875 4.359375 -46.96875 L 31.34375 -46.96875 C 31.5625 -46.96875 31.75 -46.890625 31.90625 -46.734375 C 32.0625 -46.578125 32.140625 -46.390625 32.140625 -46.171875 Z M 32.140625 -39.65625 "/></g></g></g><g fill="#ff914d" fill-opacity="1"><g transform="translate(825.6295, 377.717399)"><g><path d="M 17.65625 0.53125 C 14.5625 0.53125 11.851562 -0.015625 9.53125 -1.109375 C 7.207031 -2.203125 5.40625 -3.742188 4.125 -5.734375 C 2.851562 -7.722656 2.21875 -10.015625 2.21875 -12.609375 L 2.21875 -14.359375 C 2.21875 -14.585938 2.296875 -14.78125 2.453125 -14.9375 C 2.609375 -15.09375 2.796875 -15.171875 3.015625 -15.171875 L 10.734375 -15.171875 C 10.960938 -15.171875 11.15625 -15.09375 11.3125 -14.9375 C 11.46875 -14.78125 11.546875 -14.585938 11.546875 -14.359375 L 11.546875 -13.09375 C 11.546875 -11.519531 12.125 -10.207031 13.28125 -9.15625 C 14.445312 -8.101562 16.015625 -7.578125 17.984375 -7.578125 C 19.734375 -7.578125 21.066406 -8.023438 21.984375 -8.921875 C 22.898438 -9.816406 23.359375 -10.957031 23.359375 -12.34375 C 23.359375 -13.375 23.066406 -14.257812 22.484375 -15 C 21.898438 -15.738281 21.082031 -16.429688 20.03125 -17.078125 C 18.976562 -17.722656 17.359375 -18.609375 15.171875 -19.734375 C 12.484375 -21.078125 10.289062 -22.328125 8.59375 -23.484375 C 6.894531 -24.648438 5.441406 -26.148438 4.234375 -27.984375 C 3.023438 -29.816406 2.421875 -32.03125 2.421875 -34.625 C 2.421875 -37.21875 3.035156 -39.488281 4.265625 -41.4375 C 5.492188 -43.382812 7.222656 -44.882812 9.453125 -45.9375 C 11.691406 -46.988281 14.242188 -47.515625 17.109375 -47.515625 C 20.109375 -47.515625 22.769531 -46.941406 25.09375 -45.796875 C 27.425781 -44.660156 29.238281 -43.0625 30.53125 -41 C 31.832031 -38.945312 32.484375 -36.578125 32.484375 -33.890625 L 32.484375 -32.546875 C 32.484375 -32.328125 32.40625 -32.140625 32.25 -31.984375 C 32.09375 -31.828125 31.898438 -31.75 31.671875 -31.75 L 23.953125 -31.75 C 23.734375 -31.75 23.546875 -31.828125 23.390625 -31.984375 C 23.234375 -32.140625 23.15625 -32.328125 23.15625 -32.546875 L 23.15625 -33.75 C 23.15625 -35.363281 22.59375 -36.707031 21.46875 -37.78125 C 20.351562 -38.851562 18.832031 -39.390625 16.90625 -39.390625 C 15.300781 -39.390625 14.039062 -38.972656 13.125 -38.140625 C 12.207031 -37.316406 11.75 -36.171875 11.75 -34.703125 C 11.75 -33.671875 12.015625 -32.773438 12.546875 -32.015625 C 13.085938 -31.253906 13.914062 -30.523438 15.03125 -29.828125 C 16.144531 -29.140625 17.84375 -28.234375 20.125 -27.109375 L 21.546875 -26.3125 C 24.140625 -24.875 26.160156 -23.628906 27.609375 -22.578125 C 29.066406 -21.523438 30.285156 -20.191406 31.265625 -18.578125 C 32.253906 -16.972656 32.75 -15.03125 32.75 -12.75 C 32.75 -8.675781 31.375 -5.441406 28.625 -3.046875 C 25.875 -0.660156 22.21875 0.53125 17.65625 0.53125 Z M 17.65625 0.53125 "/></g></g></g><path fill="#dbe6fd" d="M 242.46875 82.140625 C 242.46875 100.035156 235.25 124.515625 223.414062 145.457031 C 216.292969 158.0625 200.761719 174.253906 200.761719 188.707031 L 169.480469 188.707031 L 169.480469 14.957031 C 209.789062 14.957031 242.46875 44.0625 242.46875 82.140625 Z M 242.46875 82.140625 " fill-opacity="1" fill-rule="nonzero"/><path fill="#17afdc" d="M 169.480469 74.035156 L 200.761719 74.035156 L 200.761719 115.734375 L 169.480469 115.734375 Z M 169.480469 74.035156 " fill-opacity="1" fill-rule="nonzero"/><path fill="#fccc38" d="M 96.492188 82.140625 C 96.492188 100.035156 103.710938 124.515625 115.546875 145.457031 C 122.667969 158.0625 138.199219 174.253906 138.199219 188.707031 L 169.480469 188.707031 L 169.480469 14.957031 C 129.171875 14.957031 96.492188 44.0625 96.492188 82.140625 Z M 96.492188 82.140625 " fill-opacity="1" fill-rule="nonzero"/><path fill="#5358a1" d="M 198.132812 202.609375 L 140.828125 202.609375 C 136.988281 202.609375 133.875 199.5 133.875 195.660156 L 133.875 195.414062 C 133.875 191.574219 136.988281 188.953125 140.828125 188.953125 L 198.132812 188.953125 C 201.972656 188.953125 205.085938 191.574219 205.085938 195.414062 L 205.085938 195.660156 C 205.085938 199.5 201.96875 202.609375 198.132812 202.609375 Z M 198.132812 202.609375 " fill-opacity="1" fill-rule="nonzero"/><path fill="#5358a1" d="M 199.023438 216.753906 L 139.9375 216.753906 C 136.097656 216.753906 132.988281 213.640625 132.988281 209.800781 L 132.988281 209.558594 C 132.988281 205.71875 136.097656 202.609375 139.9375 202.609375 L 199.023438 202.609375 C 202.863281 202.609375 205.972656 205.71875 205.972656 209.558594 L 205.972656 209.800781 C 205.972656 213.640625 202.863281 216.753906 199.023438 216.753906 Z M 199.023438 216.753906 " fill-opacity="1" fill-rule="nonzero"/><path fill="#f4393d" d="M 163.554688 46.628906 L 162.027344 53.886719 C 159.753906 54.296875 157.550781 54.902344 155.414062 55.667969 L 150.433594 50.109375 C 146.769531 51.667969 143.367188 53.703125 140.230469 56.070312 L 142.535156 63.085938 C 140.785156 64.566406 139.164062 66.1875 137.683594 67.933594 L 130.667969 65.632812 C 128.296875 68.769531 126.265625 72.171875 124.703125 75.832031 L 130.261719 80.8125 C 129.496094 82.945312 128.894531 85.148438 128.480469 87.425781 L 121.222656 88.953125 C 120.980469 90.90625 120.824219 92.875 120.824219 94.882812 C 120.824219 96.890625 120.980469 98.863281 121.21875 100.808594 L 128.476562 102.335938 C 128.886719 104.609375 129.492188 106.8125 130.257812 108.945312 L 124.699219 113.925781 C 126.257812 117.589844 128.296875 120.992188 130.660156 124.128906 L 137.675781 121.824219 C 139.160156 123.574219 140.777344 125.195312 142.527344 126.675781 L 140.222656 133.6875 C 143.363281 136.058594 146.765625 138.09375 150.425781 139.65625 L 155.40625 134.09375 C 157.542969 134.859375 159.746094 135.46875 162.023438 135.878906 L 163.546875 143.132812 C 165.5 143.375 167.472656 143.535156 169.480469 143.535156 L 169.480469 46.234375 C 167.472656 46.234375 165.5 46.394531 163.554688 46.628906 Z M 163.554688 46.628906 " fill-opacity="1" fill-rule="nonzero"/><path fill="#f7edd3" d="M 169.480469 122.683594 C 154.125 122.683594 141.675781 110.234375 141.675781 94.882812 C 141.675781 79.53125 154.125 67.082031 169.480469 67.082031 " fill-opacity="1" fill-rule="nonzero"/><path fill="#fccc38" d="M 197.285156 42.757812 C 197.285156 43.214844 197.242188 43.667969 197.152344 44.113281 C 197.0625 44.5625 196.929688 44.996094 196.757812 45.417969 C 196.582031 45.839844 196.367188 46.242188 196.113281 46.621094 C 195.859375 47 195.570312 47.351562 195.25 47.671875 C 194.925781 47.996094 194.574219 48.285156 194.195312 48.539062 C 193.816406 48.789062 193.414062 49.003906 192.992188 49.179688 C 192.574219 49.355469 192.136719 49.484375 191.691406 49.574219 C 191.242188 49.664062 190.789062 49.707031 190.332031 49.707031 C 189.878906 49.707031 189.425781 49.664062 188.976562 49.574219 C 188.53125 49.484375 188.09375 49.355469 187.675781 49.179688 C 187.253906 49.003906 186.851562 48.789062 186.472656 48.539062 C 186.09375 48.285156 185.742188 47.996094 185.417969 47.671875 C 185.097656 47.351562 184.808594 47 184.554688 46.621094 C 184.300781 46.242188 184.085938 45.839844 183.910156 45.417969 C 183.738281 44.996094 183.605469 44.5625 183.515625 44.113281 C 183.425781 43.667969 183.382812 43.214844 183.382812 42.757812 C 183.382812 42.300781 183.425781 41.851562 183.515625 41.402344 C 183.605469 40.957031 183.738281 40.519531 183.910156 40.097656 C 184.085938 39.675781 184.300781 39.277344 184.554688 38.898438 C 184.808594 38.519531 185.097656 38.167969 185.417969 37.84375 C 185.742188 37.523438 186.09375 37.234375 186.472656 36.980469 C 186.851562 36.726562 187.253906 36.511719 187.675781 36.335938 C 188.09375 36.164062 188.53125 36.03125 188.976562 35.941406 C 189.425781 35.851562 189.878906 35.808594 190.332031 35.808594 C 190.789062 35.808594 191.242188 35.851562 191.691406 35.941406 C 192.136719 36.03125 192.574219 36.164062 192.992188 36.335938 C 193.414062 36.511719 193.816406 36.726562 194.195312 36.980469 C 194.574219 37.234375 194.925781 37.523438 195.25 37.84375 C 195.570312 38.167969 195.859375 38.519531 196.113281 38.898438 C 196.367188 39.277344 196.582031 39.675781 196.757812 40.097656 C 196.929688 40.519531 197.0625 40.957031 197.152344 41.402344 C 197.242188 41.851562 197.285156 42.300781 197.285156 42.757812 Z M 197.285156 42.757812 " fill-opacity="1" fill-rule="nonzero"/><path fill="#fccc38" d="M 225.089844 60.132812 C 225.089844 60.589844 225.046875 61.042969 224.957031 61.488281 C 224.867188 61.9375 224.734375 62.371094 224.5625 62.792969 C 224.386719 63.214844 224.171875 63.617188 223.917969 63.996094 C 223.664062 64.375 223.375 64.726562 223.054688 65.046875 C 222.730469 65.371094 222.378906 65.660156 222 65.914062 C 221.621094 66.164062 221.21875 66.378906 220.796875 66.554688 C 220.378906 66.730469 219.941406 66.859375 219.496094 66.949219 C 219.046875 67.039062 218.59375 67.082031 218.136719 67.082031 C 217.683594 67.082031 217.230469 67.039062 216.78125 66.949219 C 216.335938 66.859375 215.898438 66.730469 215.476562 66.554688 C 215.058594 66.378906 214.65625 66.164062 214.277344 65.914062 C 213.898438 65.660156 213.546875 65.371094 213.222656 65.046875 C 212.902344 64.726562 212.613281 64.375 212.359375 63.996094 C 212.105469 63.617188 211.890625 63.214844 211.714844 62.792969 C 211.542969 62.371094 211.410156 61.9375 211.320312 61.488281 C 211.230469 61.042969 211.1875 60.589844 211.1875 60.132812 C 211.1875 59.675781 211.230469 59.226562 211.320312 58.777344 C 211.410156 58.332031 211.542969 57.894531 211.714844 57.472656 C 211.890625 57.050781 212.105469 56.652344 212.359375 56.273438 C 212.613281 55.894531 212.902344 55.542969 213.222656 55.21875 C 213.546875 54.898438 213.898438 54.609375 214.277344 54.355469 C 214.65625 54.101562 215.058594 53.886719 215.476562 53.710938 C 215.898438 53.539062 216.335938 53.40625 216.78125 53.316406 C 217.230469 53.226562 217.683594 53.183594 218.136719 53.183594 C 218.59375 53.183594 219.046875 53.226562 219.496094 53.316406 C 219.941406 53.40625 220.378906 53.539062 220.796875 53.710938 C 221.21875 53.886719 221.621094 54.101562 222 54.355469 C 222.378906 54.609375 222.730469 54.898438 223.054688 55.21875 C 223.375 55.542969 223.664062 55.894531 223.917969 56.273438 C 224.171875 56.652344 224.386719 57.050781 224.5625 57.472656 C 224.734375 57.894531 224.867188 58.332031 224.957031 58.777344 C 225.046875 59.226562 225.089844 59.675781 225.089844 60.132812 Z M 225.089844 60.132812 " fill-opacity="1" fill-rule="nonzero"/><path fill="#fccc38" d="M 242.46875 105.308594 C 242.46875 105.765625 242.421875 106.21875 242.335938 106.664062 C 242.246094 107.113281 242.113281 107.546875 241.9375 107.96875 C 241.765625 108.390625 241.550781 108.789062 241.296875 109.171875 C 241.042969 109.550781 240.753906 109.902344 240.429688 110.222656 C 240.109375 110.546875 239.757812 110.832031 239.378906 111.085938 C 239 111.339844 238.597656 111.554688 238.175781 111.730469 C 237.753906 111.90625 237.320312 112.035156 236.871094 112.125 C 236.425781 112.214844 235.972656 112.257812 235.515625 112.257812 C 235.058594 112.257812 234.609375 112.214844 234.160156 112.125 C 233.710938 112.035156 233.277344 111.90625 232.855469 111.730469 C 232.433594 111.554688 232.035156 111.339844 231.65625 111.085938 C 231.273438 110.832031 230.925781 110.546875 230.601562 110.222656 C 230.277344 109.902344 229.992188 109.550781 229.738281 109.171875 C 229.484375 108.789062 229.269531 108.390625 229.09375 107.96875 C 228.917969 107.546875 228.789062 107.113281 228.699219 106.664062 C 228.609375 106.21875 228.566406 105.765625 228.566406 105.308594 C 228.566406 104.851562 228.609375 104.402344 228.699219 103.953125 C 228.789062 103.503906 228.917969 103.070312 229.09375 102.648438 C 229.269531 102.226562 229.484375 101.828125 229.738281 101.449219 C 229.992188 101.066406 230.277344 100.71875 230.601562 100.394531 C 230.925781 100.070312 231.273438 99.785156 231.65625 99.53125 C 232.035156 99.277344 232.433594 99.0625 232.855469 98.886719 C 233.277344 98.714844 233.710938 98.582031 234.160156 98.492188 C 234.609375 98.402344 235.058594 98.359375 235.515625 98.359375 C 235.972656 98.359375 236.425781 98.402344 236.871094 98.492188 C 237.320312 98.582031 237.753906 98.714844 238.175781 98.886719 C 238.597656 99.0625 239 99.277344 239.378906 99.53125 C 239.757812 99.785156 240.109375 100.070312 240.429688 100.394531 C 240.753906 100.71875 241.042969 101.066406 241.296875 101.449219 C 241.550781 101.828125 241.765625 102.226562 241.9375 102.648438 C 242.113281 103.070312 242.246094 103.503906 242.335938 103.953125 C 242.421875 104.402344 242.46875 104.851562 242.46875 105.308594 Z M 242.46875 105.308594 " fill-opacity="1" fill-rule="nonzero"/><path fill="#fccc38" d="M 204.234375 147.007812 C 204.234375 147.464844 204.191406 147.917969 204.101562 148.363281 C 204.011719 148.8125 203.882812 149.246094 203.707031 149.667969 C 203.53125 150.089844 203.316406 150.492188 203.066406 150.871094 C 202.8125 151.25 202.523438 151.601562 202.199219 151.921875 C 201.878906 152.246094 201.527344 152.535156 201.148438 152.789062 C 200.765625 153.039062 200.367188 153.253906 199.945312 153.429688 C 199.523438 153.605469 199.089844 153.734375 198.640625 153.824219 C 198.195312 153.914062 197.742188 153.957031 197.285156 153.957031 C 196.828125 153.957031 196.375 153.914062 195.929688 153.824219 C 195.480469 153.734375 195.046875 153.605469 194.625 153.429688 C 194.203125 153.253906 193.804688 153.039062 193.421875 152.789062 C 193.042969 152.535156 192.691406 152.246094 192.371094 151.921875 C 192.046875 151.601562 191.757812 151.25 191.503906 150.871094 C 191.25 150.492188 191.039062 150.089844 190.863281 149.667969 C 190.6875 149.246094 190.554688 148.8125 190.46875 148.363281 C 190.378906 147.917969 190.332031 147.464844 190.332031 147.007812 C 190.332031 146.550781 190.378906 146.101562 190.46875 145.652344 C 190.554688 145.207031 190.6875 144.769531 190.863281 144.347656 C 191.039062 143.925781 191.25 143.527344 191.503906 143.148438 C 191.757812 142.769531 192.046875 142.417969 192.371094 142.09375 C 192.691406 141.773438 193.042969 141.484375 193.421875 141.230469 C 193.804688 140.976562 194.203125 140.761719 194.625 140.585938 C 195.046875 140.414062 195.480469 140.28125 195.929688 140.191406 C 196.375 140.101562 196.828125 140.058594 197.285156 140.058594 C 197.742188 140.058594 198.195312 140.101562 198.640625 140.191406 C 199.089844 140.28125 199.523438 140.414062 199.945312 140.585938 C 200.367188 140.761719 200.765625 140.976562 201.148438 141.230469 C 201.527344 141.484375 201.878906 141.773438 202.199219 142.09375 C 202.523438 142.417969 202.8125 142.769531 203.066406 143.148438 C 203.316406 143.527344 203.53125 143.925781 203.707031 144.347656 C 203.882812 144.769531 204.011719 145.207031 204.101562 145.652344 C 204.191406 146.101562 204.234375 146.550781 204.234375 147.007812 Z M 204.234375 147.007812 " fill-opacity="1" fill-rule="nonzero"/><path fill="#000000" d="M 206.214844 179.800781 L 199.753906 177.242188 C 200.609375 175.085938 201.667969 172.863281 203 170.453125 L 209.085938 173.816406 C 207.898438 175.957031 206.960938 177.917969 206.214844 179.800781 Z M 206.214844 179.800781 " fill-opacity="1" fill-rule="nonzero"/><path fill="#000000" d="M 212.621094 167.957031 L 206.785156 164.183594 C 208.085938 162.167969 209.449219 160.171875 210.816406 158.207031 L 216.523438 162.179688 C 215.203125 164.082031 213.882812 166.011719 212.621094 167.957031 Z M 212.621094 167.957031 " fill-opacity="1" fill-rule="nonzero"/><path fill="#000000" d="M 220.585938 156.371094 L 214.875 152.40625 C 216.246094 150.429688 217.550781 148.507812 218.722656 146.648438 L 224.601562 150.34375 C 223.382812 152.292969 222.015625 154.308594 220.585938 156.371094 Z M 220.585938 156.371094 " fill-opacity="1" fill-rule="nonzero"/><path fill="#000000" d="M 228.253906 143.996094 L 222.121094 140.71875 C 223.207031 138.6875 224.25 136.621094 225.246094 134.539062 L 231.519531 137.53125 C 230.476562 139.707031 229.390625 141.871094 228.253906 143.996094 Z M 228.253906 143.996094 " fill-opacity="1" fill-rule="nonzero"/><path fill="#000000" d="M 234.496094 130.941406 L 228.097656 128.21875 C 229.007812 126.085938 229.863281 123.933594 230.675781 121.785156 L 237.179688 124.226562 C 236.339844 126.472656 235.445312 128.710938 234.496094 130.941406 Z M 234.496094 130.941406 " fill-opacity="1" fill-rule="nonzero"/><path fill="#000000" d="M 245.652344 88.960938 L 238.722656 88.378906 C 238.902344 86.261719 238.992188 84.203125 238.992188 82.261719 L 238.988281 81.625 L 245.941406 81.566406 L 245.941406 82.261719 C 245.941406 84.394531 245.847656 86.652344 245.652344 88.960938 Z M 245.652344 88.960938 " fill-opacity="1" fill-rule="nonzero"/><path fill="#000000" d="M 238.558594 74.949219 C 238.292969 72.734375 237.902344 70.519531 237.398438 68.359375 L 244.167969 66.777344 C 244.730469 69.1875 245.167969 71.65625 245.460938 74.125 Z M 238.558594 74.949219 " fill-opacity="1" fill-rule="nonzero"/><path fill="#000000" d="M 235.515625 61.945312 C 234.773438 59.855469 233.898438 57.785156 232.921875 55.777344 L 239.171875 52.734375 C 240.261719 54.972656 241.238281 57.289062 242.0625 59.617188 Z M 235.515625 61.945312 " fill-opacity="1" fill-rule="nonzero"/><path fill="#000000" d="M 229.664062 49.9375 C 228.476562 48.070312 227.171875 46.230469 225.777344 44.476562 L 231.21875 40.152344 C 232.765625 42.101562 234.21875 44.140625 235.539062 46.226562 Z M 229.664062 49.9375 " fill-opacity="1" fill-rule="nonzero"/><path fill="#000000" d="M 221.328125 39.445312 C 219.761719 37.855469 218.097656 36.328125 216.375 34.902344 L 220.804688 29.546875 C 222.707031 31.121094 224.550781 32.808594 226.285156 34.570312 Z M 221.328125 39.445312 " fill-opacity="1" fill-rule="nonzero"/><path fill="#000000" d="M 210.980469 30.867188 C 209.132812 29.625 207.191406 28.453125 205.203125 27.378906 L 208.507812 21.261719 C 210.691406 22.445312 212.824219 23.734375 214.859375 25.097656 Z M 210.980469 30.867188 " fill-opacity="1" fill-rule="nonzero"/><path fill="#000000" d="M 199.113281 24.460938 C 197.078125 23.59375 194.945312 22.804688 192.78125 22.121094 L 194.882812 15.496094 C 197.253906 16.25 199.59375 17.113281 201.832031 18.066406 Z M 199.113281 24.460938 " fill-opacity="1" fill-rule="nonzero"/><path fill="#000000" d="M 186.242188 20.371094 C 184.0625 19.882812 181.820312 19.492188 179.578125 19.207031 L 180.46875 12.3125 C 182.914062 12.628906 185.363281 13.058594 187.75 13.582031 Z M 186.242188 20.371094 " fill-opacity="1" fill-rule="nonzero"/><g clip-path="url(#a08a2557d3)"><path fill="#000000" d="M 235.515625 94.882812 C 230.992188 94.882812 227.167969 97.800781 225.730469 101.832031 L 204.234375 101.832031 L 204.234375 87.933594 L 218.136719 87.933594 C 220.058594 87.933594 221.613281 86.378906 221.613281 84.457031 L 221.613281 69.917969 C 225.648438 68.480469 228.566406 64.660156 228.566406 60.132812 C 228.566406 54.386719 223.886719 49.707031 218.136719 49.707031 C 212.390625 49.707031 207.710938 54.386719 207.710938 60.132812 C 207.710938 64.660156 210.628906 68.480469 214.664062 69.917969 L 214.664062 80.984375 L 204.234375 80.984375 L 204.234375 74.035156 C 204.234375 72.113281 202.679688 70.558594 200.761719 70.558594 L 193.808594 70.558594 L 193.808594 52.542969 C 197.84375 51.105469 200.761719 47.285156 200.761719 42.757812 C 200.761719 37.011719 196.082031 32.332031 190.332031 32.332031 C 184.585938 32.332031 179.90625 37.011719 179.90625 42.757812 C 179.90625 47.285156 182.824219 51.105469 186.859375 52.542969 L 186.859375 70.558594 L 172.957031 70.558594 L 172.957031 15.082031 C 172.957031 13.160156 171.398438 11.605469 169.480469 11.605469 C 126.605469 11.605469 93.019531 42.644531 93.019531 82.261719 C 93.019531 101.082031 100.492188 126.003906 112.519531 147.289062 C 114.679688 151.113281 117.5 155.128906 120.480469 159.382812 C 126.789062 168.375 133.8125 178.484375 134.574219 187.289062 C 132.019531 189.085938 130.402344 192.007812 130.402344 195.539062 C 130.402344 197.984375 131.285156 200.207031 132.703125 201.988281 C 130.742188 203.914062 129.511719 206.621094 129.511719 209.683594 C 129.511719 215.429688 134.191406 220.109375 139.9375 220.109375 L 199.023438 220.109375 C 204.773438 220.109375 209.449219 215.429688 209.449219 209.441406 C 209.449219 206.5 208.214844 203.851562 206.253906 201.957031 C 207.671875 200.136719 208.558594 197.851562 208.558594 195.296875 C 208.558594 189.632812 204.078125 185.363281 198.132812 185.363281 L 172.957031 185.363281 L 172.957031 119.207031 L 179.90625 119.207031 L 179.90625 129.632812 C 179.90625 131.554688 181.464844 133.109375 183.382812 133.109375 L 193.808594 133.109375 L 193.808594 137.222656 C 189.773438 138.660156 186.859375 142.484375 186.859375 147.007812 C 186.859375 152.757812 191.535156 157.433594 197.285156 157.433594 C 203.035156 157.433594 207.710938 152.757812 207.710938 147.007812 C 207.710938 142.484375 204.796875 138.660156 200.761719 137.222656 L 200.761719 129.632812 C 200.761719 127.710938 199.203125 126.160156 197.285156 126.160156 L 186.859375 126.160156 L 186.859375 119.207031 L 200.761719 119.207031 C 202.679688 119.207031 204.234375 117.65625 204.234375 115.734375 L 204.234375 108.785156 L 225.730469 108.785156 C 227.167969 112.816406 230.992188 115.734375 235.515625 115.734375 C 241.265625 115.734375 245.941406 111.054688 245.941406 105.308594 C 245.941406 99.5625 241.265625 94.882812 235.515625 94.882812 Z M 218.136719 56.660156 C 220.054688 56.660156 221.613281 58.214844 221.613281 60.132812 C 221.613281 62.050781 220.054688 63.609375 218.136719 63.609375 C 216.222656 63.609375 214.664062 62.050781 214.664062 60.132812 C 214.664062 58.214844 216.222656 56.660156 218.136719 56.660156 Z M 126.175781 155.394531 C 123.289062 151.28125 120.566406 147.398438 118.570312 143.871094 C 107.269531 123.871094 99.96875 99.691406 99.96875 82.261719 C 99.96875 47.605469 128.703125 20.234375 166.003906 18.628906 L 166.003906 42.90625 C 165.082031 42.972656 164.140625 43.058594 163.132812 43.179688 C 161.65625 43.359375 160.457031 44.457031 160.15625 45.910156 L 159.09375 50.945312 C 158.222656 51.15625 157.355469 51.386719 156.484375 51.648438 L 153.019531 47.785156 C 152.03125 46.679688 150.441406 46.324219 149.070312 46.90625 C 145.308594 48.511719 141.628906 50.65625 138.132812 53.292969 C 136.945312 54.1875 136.460938 55.738281 136.925781 57.148438 L 138.519531 62.007812 C 137.863281 62.625 137.222656 63.265625 136.605469 63.921875 L 131.75 62.328125 C 130.34375 61.871094 128.789062 62.351562 127.890625 63.535156 C 125.253906 67.03125 123.105469 70.707031 121.503906 74.472656 C 120.917969 75.839844 121.273438 77.429688 122.382812 78.421875 L 126.246094 81.882812 C 125.988281 82.742188 125.753906 83.605469 125.550781 84.464844 L 120.144531 85.546875 C 118.519531 85.875 117.347656 87.300781 117.347656 88.957031 L 117.347656 100.808594 C 117.347656 102.464844 118.519531 103.894531 120.140625 104.214844 L 125.546875 105.292969 C 125.75 106.15625 125.984375 107.019531 126.246094 107.875 L 122.378906 111.335938 C 121.269531 112.332031 120.917969 113.917969 121.5 115.289062 C 123.097656 119.050781 125.25 122.730469 127.886719 126.226562 C 128.785156 127.414062 130.34375 127.890625 131.746094 127.433594 L 136.601562 125.839844 C 137.222656 126.492188 137.859375 127.136719 138.515625 127.753906 L 136.921875 132.605469 C 136.460938 134.015625 136.941406 135.570312 138.128906 136.460938 C 141.625 139.101562 145.300781 141.246094 149.070312 142.851562 C 150.441406 143.429688 152.03125 143.082031 153.019531 141.972656 L 156.484375 138.113281 C 157.355469 138.375 158.222656 138.609375 159.09375 138.816406 L 160.152344 143.847656 C 160.457031 145.300781 161.65625 146.402344 163.128906 146.582031 C 164.136719 146.707031 165.082031 146.789062 166.003906 146.855469 L 166.003906 185.351562 L 141.378906 185.351562 C 139.957031 175.113281 132.703125 164.695312 126.175781 155.394531 Z M 138.199219 94.882812 C 138.199219 110.957031 150.390625 124.21875 166.003906 125.953125 L 166.003906 137.902344 L 165.429688 135.167969 C 165.140625 133.785156 164.039062 132.710938 162.644531 132.460938 C 160.625 132.101562 158.589844 131.546875 156.589844 130.828125 C 156.207031 130.695312 155.808594 130.625 155.414062 130.625 C 154.445312 130.625 153.496094 131.03125 152.824219 131.78125 L 149.558594 135.425781 C 147.785156 134.542969 146.035156 133.515625 144.328125 132.355469 L 145.835938 127.765625 C 146.277344 126.414062 145.859375 124.941406 144.78125 124.023438 C 143.1875 122.675781 141.691406 121.183594 140.332031 119.582031 C 139.417969 118.503906 137.9375 118.09375 136.59375 118.527344 L 132.003906 120.039062 C 130.839844 118.324219 129.8125 116.578125 128.929688 114.804688 L 132.582031 111.539062 C 133.632812 110.59375 134.007812 109.105469 133.53125 107.777344 C 132.808594 105.765625 132.261719 103.730469 131.898438 101.722656 C 131.644531 100.320312 130.558594 99.210938 129.15625 98.933594 L 124.296875 97.960938 L 124.296875 91.808594 L 129.15625 90.839844 C 130.558594 90.5625 131.640625 89.457031 131.898438 88.046875 C 132.261719 86.039062 132.808594 84.003906 133.53125 81.992188 C 134.007812 80.65625 133.632812 79.167969 132.582031 78.226562 L 128.933594 74.964844 C 129.816406 73.191406 130.847656 71.445312 132.007812 69.730469 L 136.597656 71.242188 C 137.9375 71.675781 139.417969 71.269531 140.335938 70.191406 C 141.691406 68.59375 143.1875 67.09375 144.785156 65.734375 C 145.863281 64.820312 146.28125 63.34375 145.839844 62.007812 L 144.332031 57.417969 C 146.042969 56.253906 147.789062 55.226562 149.5625 54.34375 L 152.828125 57.988281 C 153.773438 59.046875 155.269531 59.414062 156.59375 58.941406 C 158.589844 58.222656 160.628906 57.671875 162.648438 57.308594 C 164.042969 57.058594 165.144531 55.988281 165.429688 54.605469 L 166.003906 51.867188 L 166.003906 63.8125 C 150.390625 65.546875 138.199219 78.8125 138.199219 94.882812 Z M 166.003906 70.835938 L 166.003906 118.929688 C 154.234375 117.234375 145.152344 107.113281 145.152344 94.882812 C 145.152344 82.65625 154.234375 72.53125 166.003906 70.835938 Z M 199.023438 213.15625 L 139.9375 213.15625 C 138.023438 213.15625 136.460938 211.597656 136.460938 209.4375 C 136.460938 207.519531 138.023438 205.960938 139.9375 205.960938 L 199.023438 205.960938 C 200.9375 205.960938 202.5 207.519531 202.5 209.679688 C 202.5 211.597656 200.9375 213.15625 199.023438 213.15625 Z M 198.132812 192.304688 C 199.804688 192.304688 201.609375 193.238281 201.609375 195.539062 C 201.609375 197.457031 200.046875 199.011719 198.132812 199.011719 L 140.828125 199.011719 C 138.914062 199.011719 137.351562 197.457031 137.351562 195.292969 C 137.351562 193.238281 139.15625 192.308594 140.828125 192.308594 L 198.132812 192.308594 Z M 197.285156 143.535156 C 199.199219 143.535156 200.761719 145.089844 200.761719 147.007812 C 200.761719 148.925781 199.199219 150.484375 197.285156 150.484375 C 195.371094 150.484375 193.808594 148.925781 193.808594 147.007812 C 193.808594 145.089844 195.371094 143.535156 197.285156 143.535156 Z M 190.332031 39.285156 C 192.25 39.285156 193.808594 40.839844 193.808594 42.757812 C 193.808594 44.675781 192.25 46.234375 190.332031 46.234375 C 188.417969 46.234375 186.859375 44.675781 186.859375 42.757812 C 186.859375 40.839844 188.417969 39.285156 190.332031 39.285156 Z M 197.285156 112.257812 L 172.957031 112.257812 L 172.957031 77.507812 L 197.285156 77.507812 Z M 235.515625 108.785156 C 233.601562 108.785156 232.039062 107.226562 232.039062 105.308594 C 232.039062 103.390625 233.601562 101.832031 235.515625 101.832031 C 237.429688 101.832031 238.992188 103.390625 238.992188 105.308594 C 238.992188 107.226562 237.429688 108.785156 235.515625 108.785156 Z M 235.515625 108.785156 " fill-opacity="1" fill-rule="nonzero"/></g><path fill="#fccc38" d="M 72.164062 199.132812 L 79.117188 199.132812 L 79.117188 206.082031 L 72.164062 206.082031 Z M 72.164062 199.132812 " fill-opacity="1" fill-rule="nonzero"/><g clip-path="url(#533aace960)"><path fill="#fccc38" d="M 72.164062 213.035156 L 79.117188 213.035156 L 79.117188 219.984375 L 72.164062 219.984375 Z M 72.164062 213.035156 " fill-opacity="1" fill-rule="nonzero"/></g><path fill="#fccc38" d="M 79.117188 206.082031 L 86.066406 206.082031 L 86.066406 213.035156 L 79.117188 213.035156 Z M 79.117188 206.082031 " fill-opacity="1" fill-rule="nonzero"/><g clip-path="url(#c55b6be1f2)"><path fill="#fccc38" d="M 65.214844 206.082031 L 72.164062 206.082031 L 72.164062 213.035156 L 65.214844 213.035156 Z M 65.214844 206.082031 " fill-opacity="1" fill-rule="nonzero"/></g><g clip-path="url(#387949482d)"><path fill="#fccc38" d="M 263.320312 11.484375 L 270.273438 11.484375 L 270.273438 18.433594 L 263.320312 18.433594 Z M 263.320312 11.484375 " fill-opacity="1" fill-rule="nonzero"/></g><path fill="#fccc38" d="M 263.320312 25.382812 L 270.273438 25.382812 L 270.273438 32.332031 L 263.320312 32.332031 Z M 263.320312 25.382812 " fill-opacity="1" fill-rule="nonzero"/><g clip-path="url(#64591cea11)"><path fill="#fccc38" d="M 270.273438 18.433594 L 277.222656 18.433594 L 277.222656 25.382812 L 270.273438 25.382812 Z M 270.273438 18.433594 " fill-opacity="1" fill-rule="nonzero"/></g><path fill="#fccc38" d="M 256.371094 18.433594 L 263.320312 18.433594 L 263.320312 25.382812 L 256.371094 25.382812 Z M 256.371094 18.433594 " fill-opacity="1" fill-rule="nonzero"/></svg>